<mxfile host="app.diagrams.net" agent="Mozilla/5.0 (X11; Linux x86_64; rv:132.0) Gecko/20100101 Firefox/132.0" version="24.7.17">
  <diagram id="Qjw8y5szUHj4N45sn7UE" name="Page-1">
    <mxGraphModel dx="1434" dy="796" grid="1" gridSize="10" guides="1" tooltips="1" connect="1" arrows="1" fold="1" page="1" pageScale="1" pageWidth="960" pageHeight="700" math="0" shadow="0">
      <root>
        <mxCell id="0" />
        <mxCell id="1" parent="0" />
        <mxCell id="Q3Nc6EO5kdnb6FumSGlk-23" value="Acessa a API" style="edgeStyle=orthogonalEdgeStyle;rounded=0;orthogonalLoop=1;jettySize=auto;html=1;fontSize=10;fontFamily=Fira Sans;fontSource=https%3A%2F%2Ffonts.googleapis.com%2Fcss%3Ffamily%3DFira%2BSans;labelPosition=center;verticalLabelPosition=top;align=center;verticalAlign=bottom;fontColor=#808080;strokeColor=#808080;labelBackgroundColor=none;entryX=0;entryY=0.5;entryDx=0;entryDy=0;entryPerimeter=0;" parent="1" source="Q3Nc6EO5kdnb6FumSGlk-1" target="KgL-a-wTYIPYhR0-KAlW-61" edge="1">
          <mxGeometry relative="1" as="geometry">
            <mxPoint x="120" y="300" as="targetPoint" />
          </mxGeometry>
        </mxCell>
        <mxCell id="Q3Nc6EO5kdnb6FumSGlk-1" value="UsuÃ¡rio" style="html=1;verticalLabelPosition=bottom;align=center;labelBackgroundColor=none;verticalAlign=top;strokeWidth=2;strokeColor=#0080F0;shadow=0;dashed=0;shape=mxgraph.ios7.icons.user;fontFamily=Fira Sans;fontSource=https%3A%2F%2Ffonts.googleapis.com%2Fcss%3Ffamily%3DFira%2BSans;fontSize=11;fontColor=#000000;" parent="1" vertex="1">
          <mxGeometry x="20" y="280" width="40" height="40" as="geometry" />
        </mxCell>
        <mxCell id="KgL-a-wTYIPYhR0-KAlW-34" value="Auto Scaling" style="points=[[0,0],[0.25,0],[0.5,0],[0.75,0],[1,0],[1,0.25],[1,0.5],[1,0.75],[1,1],[0.75,1],[0.5,1],[0.25,1],[0,1],[0,0.75],[0,0.5],[0,0.25]];outlineConnect=0;gradientColor=none;html=1;whiteSpace=wrap;fontSize=12;fontStyle=0;container=1;pointerEvents=0;collapsible=0;recursiveResize=0;shape=mxgraph.aws4.groupCenter;grIcon=mxgraph.aws4.group_auto_scaling_group;grStroke=1;strokeColor=#D86613;fillColor=none;verticalAlign=top;align=center;fontColor=#D86613;dashed=1;spacingTop=25;rounded=1;shadow=0;glass=0;sketch=0;fillStyle=solid;fontFamily=Fira Sans;fontSource=https%3A%2F%2Ffonts.googleapis.com%2Fcss%3Ffamily%3DFira%2BSans;labelBackgroundColor=none;" parent="1" vertex="1">
          <mxGeometry x="400" y="190" width="240" height="220" as="geometry" />
        </mxCell>
        <mxCell id="KgL-a-wTYIPYhR0-KAlW-69" value="EC2" style="points=[[0,0],[0.25,0],[0.5,0],[0.75,0],[1,0],[1,0.25],[1,0.5],[1,0.75],[1,1],[0.75,1],[0.5,1],[0.25,1],[0,1],[0,0.75],[0,0.5],[0,0.25]];outlineConnect=0;gradientColor=none;html=1;whiteSpace=wrap;fontSize=12;fontStyle=0;container=1;pointerEvents=0;collapsible=0;recursiveResize=0;shape=mxgraph.aws4.group;grIcon=mxgraph.aws4.group_ec2_instance_contents;strokeColor=#D86613;fillColor=none;verticalAlign=top;align=left;spacingLeft=30;fontColor=#D86613;dashed=0;rounded=1;shadow=0;glass=0;labelBackgroundColor=none;sketch=0;fillStyle=solid;fontFamily=Fira Sans;fontSource=https%3A%2F%2Ffonts.googleapis.com%2Fcss%3Ffamily%3DFira%2BSans;" parent="KgL-a-wTYIPYhR0-KAlW-34" vertex="1">
          <mxGeometry x="20" y="60" width="200" height="130" as="geometry" />
        </mxCell>
        <mxCell id="KgL-a-wTYIPYhR0-KAlW-72" value="" style="shape=image;imageAspect=0;aspect=fixed;verticalLabelPosition=bottom;verticalAlign=top;rounded=1;shadow=0;glass=0;dashed=1;labelBackgroundColor=none;sketch=0;fillStyle=solid;fontFamily=Fira Sans;fontSource=https%3A%2F%2Ffonts.googleapis.com%2Fcss%3Ffamily%3DFira%2BSans;fontSize=11;fontColor=default;strokeColor=default;strokeWidth=0;fillColor=#CC6600;gradientColor=#FF9933;html=0;image=data:image/png,iVBORw0KGgoAAAANSUhEUgAAB9AAAAfQCAMAAACt5jRLAAAAAXNSR0IB2cksfwAAAAlwSFlzAAALEwAACxMBAJqcGAAAAwBQTFRFAAAAM2aZM2aZM2aZM2aZM2aZM2aZM2aZM2aZM2aZM2aZM2aZM2aZM2aZM2aZM2aZM2aZM2aZM2aZM2aZM2aZM2aZM2aZM2aZM2aZM2aZM2aZM2aZM2aZM2aZM2aZM2aZM2aZM2aZM2aZM2aZM2aZM2aZM2aZM2aZM2aZM2aZM2aZM2aZM2aZM2aZM2aZM2aZM2aZM2aZM2aZM2aZM2aZM2aZM2aZM2aZM2aZM2aZM2aZM2aZM2aZM2aZM2aZM2aZM2aZM2aZM2aZM2aZM2aZM2aZM2aZM2aZM2aZM2aZM2aZM2aZM2aZM2aZM2aZM2aZM2aZM2aZM2aZM2aZM2aZM2aZM2aZM2aZM2aZM2aZM2aZM2aZM2aZM2aZM2aZM2aZM2aZM2aZM2aZM2aZM2aZM2aZM2aZM2aZM2aZM2aZM2aZM2aZM2aZM2aZM2aZM2aZM2aZM2aZM2aZM2aZM2aZM2aZM2aZM2aZM2aZM2aZM2aZM2aZM2aZM2aZM2aZM2aZM2aZM2aZM2aZM2aZM2aZM2aZM2aZM2aZM2aZM2aZM2aZM2aZM2aZM2aZM2aZM2aZM2aZM2aZM2aZM2aZM2aZM2aZM2aZM2aZM2aZM2aZM2aZM2aZM2aZM2aZM2aZM2aZM2aZM2aZM2aZM2aZM2aZM2aZM2aZM2aZM2aZM2aZM2aZM2aZM2aZM2aZM2aZM2aZM2aZM2aZM2aZM2aZM2aZM2aZM2aZM2aZM2aZM2aZM2aZM2aZM2aZM2aZM2aZM2aZM2aZM2aZM2aZM2aZM2aZM2aZM2aZM2aZM2aZM2aZM2aZM2aZM2aZM2aZM2aZM2aZM2aZM2aZM2aZM2aZM2aZM2aZM2aZM2aZM2aZM2aZM2aZM2aZM2aZM2aZM2aZM2aZM2aZM2aZM2aZM2aZM2aZM2aZM2aZM2aZM2aZM2aZM2aZM2aZM2aZM2aZM2aZM2aZM2aZM2aZM2aZM2aZM2aZM2aZM2aZM2aZM2aZM2aZM2aZM2aZM2aZM2aZM2aZM2aZyEC3owAAAQB0Uk5TAG+7hsX/igP0WC8lY/ECl8DLjQb4WzUpafOdw9GRCvteOyz1BKPG15QN/WJBdQWpyt0S/mVHM3v5B6/N45sYTTaBCbXpnh9sUzqH/AvUAe2icFk9wdjypStzX5MQx9v2MXdEmRTfCKw3emtInxfT4rB+cUsZ2ecPs0NPqxzrt0mEfVKxIOW6iINWI+rwvlWLib0n7yaPXSphkpVgyS73MshnlmTP+jnMbaHVDD+nOBFFeaCtbuE8FdZ/pHLmUdq57CJXv0YornxK5LKANBvoHlRA7rxMJDCMmGbOQh3cFsIaxKrgqIW0eCFOWoKQPg6OE5qcalDSpt64XC10drbQaEeoFI4AAIi6SURBVHic7N2Hg1XV1YZxUcdBESxgl6JgGxWFUQQbFrCNjtiwREVEsAVLLKBiL9hL7Br5bKgBW+wae+8aW8QOGlvsxhKNySdDlTLnzjpnr3fvw/P7C9Z61+Zu7txz9p5tNgAAAAAAAAAAAAAAAAAAAAAAAAAAAAAAAAAAAAAAAAAAAAAAAAAAAAAAAAAAAAAAAAAAAAAAAAAAAAAAAAAAAAAAAAAAAAAAAAAAAAAAAAAAAAAAAAAAAAAAAAAAAAAAAAAAAAAAAAAAAAAAAAAAAAAAAAAAAAAAAAAAAAAAAAAAAAAAAAAAAAAAAAAAAAAAAAAAAAAAAAAAAAAAAAAAAAAAAAAAAAAAAAAAAAAAAAAAAAAAAAAAAAAAAAAAAAAAAAAAAAAAAAAAAAAAAAAAAAAAAAAAAAAAAAAAAAAAAAAAAAAAAAAAAAAAAAAAAAAAAAAAAAAAAAAAAAAAAAAAAAAAAAAAAAAAAAAAAAAAAAAAAAAAAAAAAAAAAAAAAAAAAAAAAAAAAAAAAAAAAAAAAAAAAAAAAAAAAAAAAAAAAAAAAAAAAAAAAAAAAAAAAAAAAAAAAAAAAAAAAAAAAAAAAAAAAAAAAAAAAAAAAAAAAAAAAAAAAAAAAAAAAAAAAAAAAAAAAAAAAAAAAAAAAAAAAAAAAAAAAAAAAAAAAAAAAAAAAAAAAAAAAAAAAAAAAAAAAAAAAAAAAAAAAAAAAAAAAAAAAAAAAAAAAAAAAAAAAAAAAAAAAAAAAAAAAAAAAAAAAAAAAAAAAAAAAAAAAAAAAAAAAAAAAAAAAAAAAAAAAAAAAAAAAAAAAAAAAAAAAAAAAAAAAAAAAAAAAAAAAAAAAAAAAAAAAAAAAAAAAAAAAAAAAAAAAAAAAAAAAAAAAAAAAAAAAAAAAAAAAAAAAAAAAAAAAAAAAAAAAAAAAAAAAAAAAAAAAAAAAAAAAAAAAAAAAAAAAAAAAAAAAAAAAAAAAAAAAAAAAAAAAAAAAAAAAAAAAAAAAAAAAAAAAAAAAAAAAAAAAAAAAAAAAAAAAAAAAAAAAAAAAAAAAAAAAAAAAAAAAAAAAAAAAAAAAAAAAAAAAAAAAAAAAAAAAAAAAAAAAAAAAAAAAAAAAAAAAAAAAAAAAAAAAAAAAAAAAAAAAAAAAAAAAAAAAAAAAAAAAAAAAAAAAAAAAAAAAAAAAAAAAAAAAAAAAAAAAAAAAAAAAAAAAAAAAAAAAAAAAAAAAAAAAAAAAAAAAAAAAAAAAAAAAAAAAAAAAAAAAAAAAAAAAAAAAAAAAAAAAAAAAAAAAAAAAAAAAAAAAAAAAAAAAAAAAAAAAAAAAAAAAAAAAAAAAAAAAAAAAAAAAAAAAAAAAAAAAAAAAAAAAAAAAAAAAAAAAAAAAAAAAAAAAAAAAAAAAAAAAAAAAAAAAAAAAAAAAAAAAAAAAAAAAAAAAAAAAAAAAAAAAAAAAAAAAAAAAAAAAAAAAAAAAAAAAAAAAAAAAAAAAAAAAAAAAAAAAAAAAAAAAAAAAAAAAAAAAAAAAAAAAAAAAAAAAAAAAAAAAAAAAAAAAAAAAAAAAAAAAAAAAAAAAAAAAAAAAAAAAAAAAAAAAAAAAAAAAAAAAAAAAAAAAAAAAAAAAAAAAAAAAAAAAAAAAAAAAAAAAAAAAAAAAAAAAAAAAAAAAAAAAAAAAAAAAAAAAAAAAAAAAAAAAAAAAAAAAAAAAAAAAAAAAAAAAAAAAAAAAAAAAAAAAAAAAAAAAAAAAAAAAAAAAAAAAAAAAAAAAAAAAAAAAAAAAAAAAAAAAAAAAAAAAAAAAAAAAAAAAAAAAAAAAAAAAAAAAAAAAAAAAAAAAAAAAAAAAAAAAAAAAAAAAAAAAAAAAAAAAAAAAAAAAAAAAAAAAAAAAAAAAAAAAAAAAAAAAAAAAAAAAAAAAAAAAAAAAAAAAAAAAAAAAAAAAAAAAAAAAAAAAAAAAAAAAAAAAAAAAAAAAAAAAAAAAAAAAAAAAAAAAAAAAAAAAAAAAAAAAAAAAAAAAAAAAAAAAAAAAAAAAAAAAAAAAAAAAAAAAAAAAAAAAAAAAAAAAAAAAAAAAAAAAAAAAAAAAAAAAAAAAAAAAAAAAAAAAAAAAAAAAAAAAAAAAAAAAAAAAAAAAAAAAAAAAAAAAAAAAAAAAAAAAAAAAAAAAAAAAAAAAAAAAAAAAGAazWZP0Rzq2AAAiMucVSmaSx0bAABRqW6u3ptN5lbnBgBAVOZRb802LdS5AQAQlXnVW7NJy1bq3AAAiMp86r3ZZH51bAAAxGUB9d5ssqA6NgAAotK6jXpvNllInRsAAFFZWL012yyizg0AgKgsqt6aTRarVucGAEBUFlfvzSZLqGMDACAuS6r3ZpO26tgAAIhKu/bqvdmkgzo3AACispR6a7ZZWp0bAABRaabemk06dlLnBgBAVJZR780my6pjAwAgLsup92aT5dWxAQAQlRVq1HuzyYrq3AAAiMpK6q3ZZh51bgAARGVl9dZs0qazOjcAAKKyinpvNllVHRsAAHHpot6bTeZTxwYAQFS61qr3ZpPV1LkBABCV1dVbs003dW4AAERlDfXWbNK9hzo3AACisqZ6bzZZSx0bAABxWVu9N5uso44NAICorKvemm0WVecGAEBUeqq3Zpv11LkBABCV9dVbs0n7DdS5AQAQlQ3Ve7PJkurYAACISy/13mzSWx0bAABR2Ui9NdtsrM4NAICobKLemm02VecGAEBUNlNvzSZ1m6tzAwAgKrOr92aTLdSxAQAQlfot1XuzSR91bgAARKWFemu22UqdGwAAUdlavTXbbKPODQCAqCyo3ppNalZQ5wYAQFS2Ve/NJtupYwMAICqt+qr3ZpPt1bkBABCVHdRbs82O6twAAIjKTuqt2WYldW4AAETld+qt2aR2Z3VuAABEZRf13myyqzo2AACi0rmfem82WUWdGwAAUdlNvTXb9FfnBgBAVFZTb802u6tzAwAgKgPUW7PNHurcAACIylrqrdlkoDo2AACiMqi7em822VOdGwAAUdlLvTXb7K3ODQCAqOyj3ppt9lXnBgBAVH6v3pptBqtzAwAgKvupt2aT/dWxAQAQlXbt1XuzyQHq3AAAiMo26q3Z5kB1bgAAROUP6q3Z5iB1bgAARGV79dZsc7A6NwAAonKIems2OVQdGwAAURlSo96bTYaqcwMAICqHqbdmm/XVuQEAEJX+6q3Z5nB1bgAAROUI9dZsM0ydGwAAURmo3ppNjlTHBgBAVPZQb802R6lzAwAgKkert2abY9S5AQAQlWPVW7PNcercAACIyvHqrdnmBHVuAABE5UT11myyZb06NwAAYnKwemu2OUmdGwAAUTlcvTXbDFfnBgBAVE5Wb802p6hzAwAgKkept2abU9W5AQAQldPUW7PJ6TwTBwDAVE5Qb802Z6hzAwAgKmeqt2abs9S5AQAQlbPVW7PN1urcAACIyjnqrdnmj+rcAACISf256q3ZZLFW6uAAAIjJeeqt2WZbdW4AAERlIfXWbHO+OjcAAKJyvnprtrlAnRsAAFFZQr0121yozg0AgJhUN1dvzSYdq9XBAQAQk6XVW7PNnOrcAACIykXqrdnmYnVuAABE5RL11mxzqTo3AACi8if11mxzmTo3AABi0nmEems2GdFZHRwAADH5P/XWbHO5OjcAAKJyhXprtrlSnRsAAFFZR70121ylzg0AgKhcrd6abXZT5wYAQEwGjVRvzSbdW6uDAwAgJteot2aba9W5AQAQlevUW7PNAHVuAABE5c/qrdnmCnVuAABEZZR6a7ZZWJ0bAAAxGV2n3ppNRg5SBwcAQEyuV2/NNlercwMAICo7qrdmm8XVuQEAEJUb1FuzzT7q3AAAiMqu6q3Z5kZ1bgAAxOSmWvXWbFLXTh0cAAAxuVm9Ndvsp84NAICo/EW9Ndvcos4NAICo3Kremm1uU+cGAEBUbldvzTZ3qHMDACAmd6p3ZpuaFdTBAQAQk4PUW7PNXercAACIyt3qrdnmHnVuAABEZah6a7b5qzo3AACicq96a7a5Xp0bAAAxGabemW1qh6iDAwAgJvept2ab+9W5AQAQlWPUW7PNDercAACIygPqrdlmZXVuAADEpP5B9dZsc5g6OAAAYvKQeme2qe2qDg4AgJg8rN6abbqocwMAICpzqbdmmyPUuQEAEJVH1FuzzV/UuQEAEJP609Vbs82j6uAAAIjJY+qd2ehOdXAAAMTkAvXObHO7OjcAAKLSVr012zyuzg0AgKjMqd6abZ5Q5wYAQEyqm6u3Zpsn1cEBABCTy9Q7s9G66uAAAIjJvOqd2eYpdW4AAERlPvXWbPO0OjcAAKKygHprtnlGnRsAADFp3Ua9Ndv0VAcHAEBMnlXvzEbPqYMDACAmi6p3Zpvn1bkBABCVxdVbs82G6twAAIjKkuqt2eZkdW4AAMSkXXv11mxznzo4AABisql6ZzZ6QR0cAAAxaabemW0eVOcGAEBUllFvzTYPqHMDACAqy6m3Zps51LkBABCTFWrUW7PNi+rgAACIyd/UO7PRQ+rgAACIycrqndnmpXp1cAAAxGQV9dZs87I6NwAAotJFvTXbzKXODQCAmHStVW/NNnOrgwMAICaPqndmoxbq4AAAiMka6p3ZpmUrdXAAAMRkTfXWbDO/OjcAAKKytnprtllQnRsAADEZrN6ZjRZSBwcAQExeUe/MRouogwMAICbPqHdmm8Wq1cEBABCTDdVbs80S6twAAIhKL/XWbNNWnRsAADF5Qb0zG+2kDg4AgJhsot6ZjZZWBwcAQEzmUO/MNv06qYMDACAms6u3Zptd1LkBABCT+i3VW7PN8urgAACIyavqndloRXVwAADEZGv1zmz0mjo4AABi8nf1zmzTprM6OAAAYrKtemu2WVWdGwAAMWnVV70127yuDg4AgJhcqN6ZjcaogwMAICY7qXdmo27q4AAAiMnF6p3ZpnsPdXAAAMRkF/XWbPOGOjcAAGLSqZ96a7ZZRx0cAAAxeU29Mxstqg4OAICYrKbemY32UgcHAEBMXlfvzDbtN1AHBwBATNZSb802S6pzAwAgJj26q7dmm97q4AAAiMl66p3ZaGN1cAAAxGQf9c5stKk6OAAAYtJbvTPb1G2uDg4AgJjsp96abbZQ5wYAQEzatVdvzTZ91MEBABCTO9Q7s9FW6uAAAIjJH9Q7s9E26uAAAIjJPeqd2aZmBXVwAADE5BD11myznTo3AABiMqRGvTXbbK8ODgCAmLyp3pmNdlQHBwBATPqrd2ajldTBAQAQkyPUO7NN7U3q4AAAiMlA9dZss6s6NwAAYrKHemc2WkUdHABMY7duCOy1t9qppxyx1dU7s9E5/VMy5rjrd1i3s3rWag+pPwpmAa8OUU95ljZY/bk4a+i39tWz37D8+rcttPqzb83yH6u/tYZ6NrOQlm9fvmGf858Y88o876jHLrGLegCzhPbPj3r38XXm2PHSnpuex1cZZ6+opz8LemnU7H2Gj+nZ7T318KNwvHocs6bu9147dED/Drs/NAv9/7JzP3Xqs54RXcaOG97szDseqlZPf9Zwt3rgs7Lmd52z+N4PPztrPy59onoKs7qXrh33zJndZoU/lO6mjnpW1v39sR/8Y8Xrh9WrV0G5faieMxo+UoeP2f2hVurFoHCwOnxM0GvZPgcudGOp9/Ux6ozx68beZfYB/c/stoF6MZTUoer5YrKOV2//Uc+PZ7H/wX6iTh2/ce/sbcfcUdJfPgeow8Vk7d9+eo5P52mtXhJl85Z6rphW91F9+vd8SL0w3PxTnTemV9dl6PAOO5TuV8831LliGu3LudB07lNPFDP24COfLXTerPBl/Sh10piZ5mPbdtihRGtw0Eh1opihfmv9fp+9eqiXRynMoZ4lGtF3/CeqeokEdpo6ZDTq9LHDe5bkHbcb1VmiEe1H9Wl2B3+Cz+kB9RiR5d6nj923q3qdBLOROl5UoMsNzeZJ/5HNfdQxIkvzdxec+1T1OklY/YPqCaIiXQZ0GKZeLEG8qE4WFeo7e/9uaW/qt6gjREWeH9esW4l+6fF0qnp2qNyvm/oL6gVTuOHqVNEEaW/qo9TxoWK9hqa80mROUc8NTbPdgE8PVi+aQr2sThRN9OCeV72nXjUmo+vU0aFJTrv1tsv4pt4kZ6lnhqbr0nb30hzXWX+uOk0YjBq+eyf10mmyz9Wpoel6jeuws3rhJGR+9bxgstjQMe+p104hzlMnCaMHx3VI7MjiHdWRwaTu2mf4Sb0yrVqqhwWzJL8lTWtrdYqwa7/tyhupF1AT3KDOC2bP9znzC/X6ScBj6jkhl9PWuTnxPf1LdYTIZ9QzyRxqeL86K+QxYsNLE/uTkL8O6iEhry379Ez5B/Ul1Pkhr5qxzZJ4TvOmWnVSyKlubLM71csoam3VE0IBEt7Tq5urw0MBft3TB6uXUqab1SmhAOzpjZlTPR4U47TXD0vypc2l1cGhIHWznxn5rz8fqSNCMdoM7cDv6TNU3VE9GxTmxOGvqtdT012qTg3FuXd41Id23qrOB4UZMW53nnuf3jzquaBQ144ZrV5STbS8OjIUqWbsmHhvUt9fnQ6KtP/wj9UrKjpXqYeCgrXsk9b/XC9XB4aCbdl2afWimrE71cmgYFH/91FiPvVIULy7Vl5Xva4q1nmEOi0Ub2zPGP9T+aQ6FhTvpd/9n3pdxeRa9TwQQvdx16hXVoX+Tx0Vgri/WXxfnZ5Rh4Igru2Q6is+hWvdRj0MBHJth8gfOZ7gCnVOCOS04c+pF9c0PlRHgkDufeYr9eKKw8LqSSCcJFb51+qUEMyIb3ZQL6/fOFQdCIJp0yfSBzd8faueA0Ia0SeuT9QZuFqdEQKqHbqbeoFN8ZY6DQQ19sxq9RKTW1w9BIRVu+Gm6jXWqEEj1QkhqJqhr6nX2CT/UmeBwLa7aFb/Mf079QgQ3NjD1KusETeq00FoNeMeU6+yCf6hTgLBvd+sh3qZKbVrrx4AHIztqV5oM3WdOhuEVzPuPPU6G+8kdQ5wcHuzQeqFprOUOn34iHZLv0WdDDy0/1p/c0v9g+oU4GL/Zhuo15pKM3X28LJslEd9zDZKnQt8NH9G/cXpVHUE8NKrf3yHILjoo04efpbYS73cpje6Tp0KvOzfQbvWHlYHAD8nrpjk1ZN5bafOHY5qxz2kXnDT+lydCRydMY9yrf1d3T483fWKcrFpfFGjTh2uurfdWb3mfusP6kTgqe71O3VrbX519/A1u/T/jworqSOHty37R/Vax/fqPODr3DGqRzlatVT3Dmc1fQ4WLTaRldWJw9/9Z0b0dNyu6jTgbf4WmqV2obpx+Gs+fAXNatP4QJ03FB6J5KCP2WYbUqvOAu469pec0HmBum8oPLWJYrGJ/KBOGxIjh6tfIZpod3USUFj2QsFau1jdNTQ+PEGw2iS68v1oVvX2zerF16C/OgdItFnD/8ztXdRNQ6TjM63dV5vE6uqkoTNO+LzxZHuqU4DIqqc6L7VO/dQtQ2bJG51Xm8Ya6pwh9JLseeMpbleHAJWWW/sutdfUDUOoZsAXvstN4nF1zJB6RPS88WR3qhOAUJ/NPdfavOp2IfXUvzxXm8ba6pCh1a+Z9kv6k+oAoLTcZY5rbYC6W4iNi+xQrcKtq04Ycj9KT164W90+pEY081tra6mbhdrAz/2Wm0JPdcDQ6/WJcAU+re4eYst4vT85qLu6VcjVDS/14+7rq/NFDPqMlq3Ae9W9Q20Xpz8R7aVuFDFY4I8+y01iQ3W6iMIPS4kW4DB159A78VmXtbaPuk9EQf3YUEjPq8NFHEb+RbPI/6VuHBEYsZDHWuutbhORGNrVY70JvKBOFtH4UPIA6DHqthGD2uGtwq+1LdRdIhb7Lxx+uSlsog4W8dh1acEK/FHdNeLwQfArfdvVqXtENEasGHq5SWymzhURWewU9wVY/6C6aUTikdCXXG6j7hAxGVDGp91nV6eKqAzwvi/jIXXHiMaqX4Vda39VN4iojH0v7HoTqN9SHSrisu1g3xV4irphxGPUe0HX2vbq/hCX01YKut4EXlVHitjs7/MG0SRzqftFRH54KORaO0TdHiIzcp+Q601ga3WiiE7znp4r8BF1u4jJ7QHP/BhSq+4O0Wnr8HKFowXVeSI+dYv6LcBWp6u7RVR6LRJsrR2m7g0RenyDYAtOYFt1nIhRW7czZh5Tt4rIPPVxqLX2kbo1xGiXPUItOH+t+qrTRJT6eL3R8W91p4jN26EOdt9T3RmitOurgRacvwvVWSJS5wzxWYGfqRtFdL4LdCzn++rGEKdDu4VZcP52UkeJWO33lssKnFPdJ+JzeZCr/+5Ut4VYNT8oxIITuFidJKJ1+6kOC7C6ubpNROicEBekH63uCtEauXWABSewizpIxOvQcM8bT/aTuklEaZUAT2UeqG4K8arrUPyC89epnzpHROzQC4OvwBXVPSJOBxa/1p5W94SI1e1U/Ipz95o6RUTt+R1Cr8Ar1S0iTrXFXxN0r7onxKzm0sJXnLvV1CEibsF39AXUHSJSi11W8FIbpu4Icat1PE8rkNfVGSJyvcLekN66jbpBxOr9d4pda/9SN4TI1X5b7Irzt5Y6QsSu108hF+Cz6vYQryWKPdzoGHU/iF1t4le19OiuThDR6xXyGKUr1N0hYssXutZ+VLeD6NV2KHTJeVtPnR8S0GXdcCvwG3VziNmZBS61+gfV3SB+I48ucMm520cdH1KwZLhTYJdU94aYHflecUvtIXUzSEHHa4pbcu56q9NDEs7oEWgBtmuvbg1RO6m4y6ofVveCJBz5x8KWnLv91OEhDTcU97n6G5uqG0Pk/lrYWjtL3QrS8EPAnxjD4vsRKnRWmBV4m7ovRK7Na0WttUfUrSAR3+1c1Jpzdoc6OSSjuG9KU+ujbguxG9WumKXWqqW6E6Qi2E+MgTVTB4dk1LwYYgUup24L0dusmKX2mLoPpKNPMWvO2z3q3JCO5gEOmFmhRt0Votd+nkLW2gXqPpCQPxSy5rwdoo4NCRm4R+EL8G/qnpCAJQq5SbWtug0kpG71ItacsyF8P0ITnFRd9Ar8Wd0SUnBREWttWXUXSMmWHxex6Hy9qQ4NaZmj6BX4gbojpODBAv42VN1R3QWScnVBD2M6+o86M6Sl8Cuqu6g7QhLWyb/U5lH3gMTck3/RORunjgyJWazYu1S71qobQhJqN8291uZV94DUNCvgI87VQHViSM0PXxW5AB9Vt4NEjM291uZTt4DUtF+pgM84R3uoA0N6Hi9yBe6t7gapeDLvWrtW3QGS02twEZ9ybvZV54UEXVrgCnxc3QxSsWTOywRat1F3gPQcUMznnJMn1HEhQc1bFLcC11Y3g2TkfB5zYXX9SNFqxXzQ+ThAnRZStGrnohbgYHUrSMf9nXKttW/V9SNFzVO6SvUpdVpI0t1FLcBX1J0gIfPmWmu91eUjSde2LujDLrx11VkhTe2vKWgF3q3uBAm5Pddfhr5Tl480HVPQh114n6ijQqK6fFHMCvxQ3QhS8mmOpdauvbp6pKnmb8V82IW3vjoqpKp3MSvwUHUfSMm1OZbaUurikaqBQ4r5tAvuF3VSSNZBRSzAF9RdIC132NfaVurakaz5iviwc9BLHRSS9f7mBSzA49RdIC232tfaPerakaya/OcOe9hInRMSVsS9a3Oom0Ba6k41r7VD1LUjXfsV9qJuSC+qY0LC2s+TfwWepG4CiTnfutSG1KhLR8L+k//DLrzh6pSQsstzHsU522z1W6p7QGJajjautTfVlSNlHR/K+2Hn4GV1Skha7kMRX1V3gORcYFxr/dWFI2lH5f2wC6/+XHVISNpL7+RcgXOrO0ByTjKutSPUhSNtL+b8sAuvhToiJG6ZnCvw7+oGkJya52xrbaC6cKTt0J1zftoFx/cj5PR5vhU4v7p+pGdH01LbQ102Uvdlvg+78L5UJ4TUrVqfZwG2aqmuH+m52rTWjlaXjdR1t78y6eNddUJIXq4rqi9UV48U/WRZa8eqq0byvs/zYRdeq77qgJC8H3rkWIEXqKtHis62rLXj1VUjebXP5viwC28HdT4ogdtyrMCL1cUjRYdY1tqJ6qqRvvlzfNiFd6k6HpTAkTkuIlpWXTyS9GrTl9pz6ppRBk/aP+zC+506HZTBP8wLsFM/de1I0nVNX2uHq2tGGdzVyfxpF97l6nRQBv3esi7A19SlI02/NH2tnayuGaWwovXDLrzOI9ThoBQWt67Aq9SVI00j2jV5rR2lrhml8NQG1k+74HZTZ4NyqDP8pNngdXXlSNRBTV5rp6lLRjnkeQg4rDHqaFAS8xlX4LXqwpGo5Zu61D5WV4ySWLu18dMuuAHqaFASbd4zLcAe3dWFI1H3N3WtnamuGGVxkenDzsEb6mRQFnOZFuB66rKRqto7m7jWzlZXjLLYtdr0aRfcoJHqZFAWzb+yrMBv1WUjWa80ca2doS4YpRHpNap7qXNBeRxoWYG91VUjWSc3banVn6suGKVxda4LqYLZWJ0LymPL0YYV+J26aiTrpKYttT+q60WJ7Gv4sAvv9+pYUCJ/aPoCbNdeXTSS1bJVk9bav9X1okS2bfqHnYP91LGgRJ5q+qVrd6hrRsJ2aNJaO19dLspkqSZ/2IXXrk6dCsrk0yavwGbqkpGweZu01saqy0WZjGvyh11426hDQaks0eQVeI+6ZCTss6Ysterm6nJRJu3fa/KnXXB/UIeCcvmpqSvwEHXFSNhRTVlql6mrRbk80dQPu/C2V2eCcrmkiQtwSI26YiRsYFPW2orqalEu+8d3uMz96kxQLn2/aNoCfFNdMFJW05Rbr65UV4uS+aRpH3bhDalVR4KSuaJpK/A/6nqRtKb8xLOAuliUTJN+8fFwmDoRlM2STVuB49T1ImlnVr7UWrdRF4uSqW3RtE+74PqrE0HpXNOkFThQXS6S1oTnkp5V14rSObuJG25oR6gDQen0acoC/IrffJDHMpWvtUXVtaJ0jhzU1C03rB/UgaB0RgxpwgLcV10t0nZG5WvtG3WtKJ9TmrznhrSHOg6U0E5NWIFPqItF2kZVvtaWVNeK8lmzyZtuSEer40AJ/diEFXiAulikbcuKlxq3AKF43bs2fdsN51h1HCihusGVr8AT1cUibbWtK11qS6lLRRmtaNl4QzlenQbKaJ+KF+C66lKRumGVrjVuAUIAs5t23kBOVKeBMhpb8QL8RF0qUtet0rW2jLpSlFHNe5adN4zn1GGglGpPqHQF/lNdKlJ3UKVrbTl1pSil62ybbwiHq7NAOfWvdAVuqK4UqbuowqW2ArcAIYRljbtvACers0A5/bfSFdhLXSlSt3GFS20ldaEop9qPjdtv8X5RZ4GSWqSyBXiCuk4k7+cKP+x+VheKkvqLeQMu2mnqKFBSH1W2AF9U14nkHVvhh90q6kJRUpcbt9/C8f0IgSxR2Qocrq4TyTumwk87TrlGGDVNOHcjqDS/H7V5SaivuvtE1FV2ftLs6jptXj4zNg+P+VX/A4fP1/vW+fc7cZa6JnTByj7s0rwFqE75YfeSuvtUNOWs65DS/H4UwS8Wm9+0UYtud9x8yhX9hw/Y8937m6sjidCnleRYn+hHxm2hF1heoxe5+aK7F393lvhJ7ZLKInlUXafJhmHXSSV63DTsoW7X7L7JvD//48obzrjrdHUkEVpFPaOJXlYHYdJTHdv0Rj92fYe7b5n//Tp1NvG4p5LcWqirNGraje9CN9141XwLdFfHFdbilUWxhrpOk9iu2/7VBg8t9ene68y+a8mXVVOc21k9lAb156qDMKn40BJ/rXd48Ynv3xihTigGD1ZXkNfW6iptRm4QfCUVqfXCP/+ymDqzcLavLIU11XWaXBB2aeTRqcXh/W9ZtcQLqwn+ph5Gg/PUMZj0rVfnlqXTZTt9tu0s/2P7phUktaC6SJs3gi+hwnXeZsGB6tgCWaayBNZW12myW9BVUYBWj3161suJ/nJWnDj+kLKQOgaTXdSxVaZ6hw4DRqmzUjqmgpDeVRdpMyD04gmj299L+Zv6NxU1n+YtQHWJ/C3ooV8/7JJ86LAgW6gH0OBLdQwm66hja4LnLvjzieq8VK7Ojqc60b/XXRV+5YTR+uEz1NkVr7KH4nqqyzTZLvCCKNLgh9cZqM5LJorfgdP8ftRMHVsTLXLbA7Pk4yO1z2VGs7S6RqPLHJZNKLuNK9s3qS8r6nt9dZkmRwReDUV79X9DZ80niL5VJ/+r6jTftnpTnVvTtevZJ83nD3P5d2YuO6lLtOnYyWHNhNNtCXWAxRpeUddpnnJ9d+C1EMAGPQc8r47N357q2H+1gzoEm1hO5Wma1j1v6KhOzln2L82/U5doM6fDegmpfqF71REW6Z8VNZ3mLUCbBF4KYXTat8+s9kzw8xE8qp3m96Ne6tjMRl9w1Cx1geNdmYlcri7R5nyHxRLWzt+rMyzQGpV0vJG6Sps/hl4JobSbe2h7dXiuIpjU8uoMTM5Rx5bHe/1vV+fnp/adjDQ6J/pz20IuayWs1cpzOuzKlfSb5inXIyo5zCFWB/cfqM7P0bzquFP9ftRWHVs+ne47SZ2gm/sysvg/dYFGLVxWSmDXlOYVtisqaXczdZUmCR54MLXqnkeV7QnMmfqzOuxUvx+tps4tt8sGpJl8k2XdmrGaukCbcyP4uawALcryx6KKfmc+R12liX6XyKtF237qEH10USc9227qCGySOUa7EcPmSvQF7KZZNSOGr9UF2pzkskbCe/VEdZLF+LyCXhM95fo/wRdBeAdv1lIdo4vst3QDu0KdgEntF+rcCvHVM7PAY6DtV2g8hLXUBdrM4bNEwtshzV1uWjtU0Gqap1xXHR18DXjo+syssKU/rI45ze9H76tjK8q6n5X/D+83N5rAoJHq+mz+5bRCwnulFG9d3FlBp4neAvRW8CXg450vy/9hV+EtvuFcrU7AZKg6tuK81afsT4ys32j/e6nLMxrmtD4czKHOsgA1lRzzc766SpPTy/G0xnjDSv9ht6Q44US/H20mjq1Q17+hjjOsxn9t3lhdns2hTovDQ6f/qtPM78FKGk3zlOuxgcfvaptEf2GrVE3GD4yhJfr9qAzvAE/R6ttS/7p0ZKPN36Iuz+Z4p7XhYq/0/+heyf0lid4C9Hrw+XtqtWipP+yq7tDGe526f5t5tKkV7uDH1YmG1Ohfp/dTV2dzrNfScLGMOs7c3q2gy5/URdpsHHz8vg6+VZ1oSOJppfn9qH0PbWoBbH2kOtRwejbS9+g6dXU2q7utDA+vJn9A5y0VdHmpukibvwUfv7cyf9gtro12lLp/k1Ha0IJ4J82LoCpxYCNtb6MuzqZ2D7eF4aKPOtC8KrmQ7BJ1kTYlW2rjDS7vh91a0mAT/X60ijS0QOqblfXC9Mcb6fqv6uJs3nZbFj42VQea1wUVNPkndZEm9wYfvkB5P+y6t1bmmuj3o8a+8iVs4ffVwYbxQyM9J3rh1w1ui8JJ6g+6L5XdYqKnXJflSMJprFeWM4enJX2+K9HvR1n3faTqqzTPms5Se9PMWz5EXZzNjn6Lwkd/daI5vZfdYjd1jTZZdyGkao8z1MmGsZMy1ES/H5XioqsZ6TRcHW0QM3+sZ0iiB01s47goXCyiTjSffhUcvpLmKddVK4YfvkZJP+w+U2aa5vejjinfD5xh0TSfamjcH2ba7mHq0mzqRjsuCR+7qjPNpZLHZNdRF2mzXujJ62yc/vkH05tfGOjOaX4/ulYYWXCbtFHHW7yZ3/+Y6F96t3BcEE4S3e4mquQs6DRPua7ZPPjodU4p4Yed8qTe3dXN2/xel5iDv52uzrdwf5pps3uqS7Pp7bgenKyozjSXs7MbTPSU67K9T/FbK5Xw2LiDdXEm+v3oZ11iHrq9pA64aC/NtNeB6tJsvnVcDk4uVGeaSwVnQV+jrtHmgPCjV1q4HJf3Tu16XZqJfj8q1yld09utdDv6VzPp9E51YUbPuq4HF51GqkPNY+nsBm9T12hzcvjRS91Yuu/o8+rCTPRVwOd0ifm4sa864oLtNZNGn1QXZtO9fEcPzzbbdupUc2jTObu/RA/Dmzv85LU2LduHne4q0ES/H838D7il8XmaZ2DM1L9n0uex6sJsVnVdDE6GqlPN4eoK+kvzlOtK/vaQuDdL9mTcnrIkE/1+tK0sMD9nluuFjmdm0ubT6sJslnddC05eV6eaQwVXs6yQ5r+okdKTRH08nObLVjPzX1mQB6pbt7lEFpijvdUpF+qemXR5r7owG+lhUKGsr041h5kfdDDZ39Q12nwXfvB6z6hTLlRz2Xtrx6tbtynhI8YzsLg65iLN5L2159R1GZXyz6D7qFPNYffs9nZU12jzffjB69Un+nzDTLynyjHR70elO3Zzhjovq865QDN57OFwdV02i5XypMIL1LHmcGd2ex+oa7TZO/zgIzBoLXXORfpclOIwdeNGXUV5OXvhQXXQBZrxzI5Rl2WjPNwxnDPVsdpVcsNoF3WRNp8En3sUXi3TaVqq0/cT/X70lCgud4eX6FmRGb+39qO6LJuznBeCj1fUsdo9kN1d10T/MT0UfvBRSPi/k9NRvbd2srpxmx9Fcflrq466OGfOsMEj1WXZPOy8Dnzsq47V7u/Z3d2srtFmsVbhBx+HlF+ymMbMHgEOje9HkWuX9g1YU7ttRv19rK7K6GPvheDiIHWsdhW8dbCGukaby0NPPRqbJ/qbyAycIYrwNHXjNpeK4hJYKs13Z2dghn+FOkVdlc2WwuuUAuqpztVut+zu1lTXaPNN8LFH481EfxSZ3nKaAFP9ftRNE5fE8uqwizLDkz/OVldlc5T3KvBxnDpXs7oNsrtbW12kzVbh5x6NtC/wncrpmvwS/X5U6vuBp7VCom8WTuekGXV3hroqm/W9V4GPedW5mlXwjWhddY1GFbxgXxo3JfpIzfQ0W9Rc6rZt7peEpXKVOu6C7DeD3uoTvTnxFfdV4GJlda5mq2Q3l+rvCeuGn3s8Uj7a6DdelcSX6PejxyVhqbRaQJ13MbacQW+PqYsyOth9FbiYQ52r2RPZzSV6ru2R4ccekerv1HkXRHL0WX2ir/L/UxGWzvXqvItRO4MLR/+tLspmf/9F4CLd94YOz27uQ3WNNo+EH3tMVlfnXZBTFOH9Ud21kSQsoZPUgRfjhOk7+0xdk82t/mvAxSrqYM0qOHyll7pGm4vDjz0q76oDL4bkUcZEvx9VLaIIS2hTdeDFuGb6zsaqa7L5yH8NuJhdHaxVBYevvKCu0WiMw9xj8qg68GKcrcgu0e9HbTopwlKaXx15ITaZrq/q5uqabMr64PEb6mCtLs/ubRN1jUabhh56bOZUJ16IPorollB3bbOkIiupw9SRF+J/0/V1mbokm9qdBWvAw5bqZK2+zu4t0Qf+aoeEH3tcEr5QYCqK08lT/X6kOidXqBTPfvafrq0V1SXZHCJYAR5WUAdrdl12c4n+nHB7+LFHpv4QdeZF2EWQ3E/qpo3K+gtmI75VZ16Ef0zX1pXqkmzK+j/KRP9g8qvrM3urT/SvDxs6zD0yO6ozL8IoQXCJfj8q66kejRndUh16AZafrq1V1SXZNBOsAA+JXqb8q68ye2uhLtFouMPcI7NzR3XoBVDc8H2JummjGbz+VHrzqUMvwDLTNtW6jbokmxk8rl8KzdTBWp2Y3dvc6hqNLgg/9ujcog69AIsJckv0+1Hfct501bgb1akX4Olpm3pWXZFN+3aKFeDgfHWyVhXclbOgukaj3YJPPT4rqUMvQK1/bKl+P1rWPyq9+oHq2PObf9qm/qeuyOZqxQLwcIA6Wau5sntL9LySSm6RK51WZbiPyj+2buqWjSp4RaWEzlLHnt90G+E36opsSrsAR6mTtcr+u3SrvuoabUT3aouV4cpo/9QS/X5UdZt/VBFYWB17fj9M29N/1RXZrKaYv4POI9XJWr2W2dsO6hKNjnCYe3w+V8deAP/UUr1M/k3/qCJQf7s699ymvW5tg5Hqimyyt480La0O1qr9oMzedlLXaHS3w9zj0yrRc/en5p9aot+Pqt7xjyoGi6tzz639NB0lekT9iM6S+Yf3sDpZqwre+U31j7jTH5c8S/henXt+7pml+v2ol3tScUj1vZupbP7bjm5T12NT2ocy/6lO1uqD7N4uV9dodF74scfoInXu+blndo26Y6OX3ZOKwx416uRz6/rbjvqo67Fpq5l/eLeqk7VaI7O1zv3UNdqMqHaYe4SeUwefn3tmG6s7Nirt52mWtdTJ57bubxu6S12Pzb814w8v2TO0e2a2tpu6RKM3HMYepUQ/G6biHtmf1R0bXeWeVCRS/RlwimG/6WeFRP/kUNa/gvZor07WKvvoyDHqEo3+7DD3KKX/xJB7ZKn+H+hG96Qikf7vSh//pp+/qcuxOb2VaP6hpXouRSVHR36trtFoZYe5Ryn926i8Exud6Pej2i+8k4pFqpfjTfHb77Y/q8uxKe0zHKupk7WaM7u3q9U1Gh0dfuxxWk+dfG7eiV2vbthooHdQ0Uj1+vopdvhNPx+oy7HZTDT+4JK9/+f1zNYGjVTXaPSWw9yj1KO7Ovq8vBP7q7pho6HeQcVjF3X2ee32m3beVpdjc5xm+OH9SZ2s1T6Zre2lLtHo3FnxHqoJUj0lZTLvwG5QN2w0h3dQ8Uj1McbJFp66m6616nJsyvqlqVOib3ZVVX2e2dt16hKNlnCYe6TGqbPPyzuwRL8fVS3kHVQ8jlVnn9emU3fzqLoam+dV0w/tMnWyZl9l9pbqf4Xnc5h7pOZQZ5+Xc143Jfr9qOoy56AisrU6+7yun7qbvdXV2JT2J59L1clarZ3dW6rXyGX/mFBaK6qzz8s5r5vV/Rq17+EcVESeVYef1+5Td/O4uhqbA1XTD62tOlmrXzJbG12nrtHo+szWSmsbdfZ5Oef1kbpfowruYSitPdTh5/Wbl3ASvT3uSdX0Q3tXnazV2ZmtJbs5ZP+YUFpvqbPPyzmvVM9tXsU5p5jUJ3uU10T7TtXMYHUxRmW9669VX3WyVtlP1eyoLtHoXoe5x6qHOvy8nPPaX92v0bHOOUXleXX6Od08VS+vqIux+UE2/MAWUSdrlv1UTapv9DzgMPdotVSnn5NvWneq27W6zzenuHynTj+nlabq5Rl1MTal/QvRQupkrSp4qmZXdY1GCzrMPVqpvoY1iW9aB6nbtXrVN6e4nKNOP6epXxj+UF2Mzc+y4Qe2oDpZq/0yW0v2jZ6LHOYerdSP0fJN60B1u0YdZ9H7gSfYUx1/TktN1cuh6mJsSvvc8SPqZK2+z2xtd3WJVuuFH3u8flGnn5NvWkPV7Rot4BtTZLZXx5/TXlNaSfQh1pqyXg1Uf646Wqu/ZPb2F3WJRjWbOww+Wmuq48/JN6171e0a/d43psj0Vsef07NTWjlOXYtNad+afFWdrNkrmb2l+kbP2w5zj1eidzdN5hpWot+Pqqp2dI0pNsnehzXRa1NaSfRkx1t0ww/rYXWyZhtl9pbqGz1rOsw9Xqke1zuJa1j3qbu1Wt01pth8po4/p5+mtHKSuhab0p7FOVydrNXpmReSJftGz8keg4/W1+r4c3IN6xh1t1bPucYUmy/V8ed04eRO6h9U12Kznm74Yc2uTtZqbGZrT6pLtJrbYe7xel0df06uYf2o7tboJdeUonOLOv+cprxzeKq6FJvupb1J4Eh1tFbZF5IleuJBVdUODnOPV+r3p3pmler3o6ptPVOKz4bq/HN6b3Inc6tLsSntSxYnqJM1+zazt0RPPKga2dph8PE6Q51/Tp5ZPaRu1uoSz5Ti8yd1/jntPLmTv6tLsblSOPygEn3p4Fd3ZPaW6IkHVd85zD1iS6rzz8kzq2QfaV3UM6X4pH4a4pQ/WM+vLsWmtEd3JftQzVT/SZyJZN/oyT4xp9ROVOefk2dWZ6mbtdrGM6X4nK7OP5+6yY20SvTmhaWFww/qKHWyVrdntpbsHx/2dph7xEao88/JM6tkj3ns6plSdDqneib1RH0nd5Lo1V4dOwmnH1Sy9/h9mNlaoiceVFV94jD3eI1Wx5+XY1b1qX7Te8oxpAgdrM4/p+cnd9JBXYrNu8LhBzVMnazZZpm9JXriQVXVxw6Dj1e6j2lO5JjVY+perY5yDClCP6nzz2nKXeIXq0uxKe11lp+okzX7NKu1ZN/oad7KY/LR6qbOPy/HrC5Q92p1lmNIEVpJnX9OW0zuZFl1KTalPekj2Ve1pz58cMaSPaT+8vBjj9nq6vzzcsyqrbpXq50cQ4rQmer8c1p1UiPVHdWl2JyqnH5IT6uTtcp+VzvREw+qqr7xGHy8PlXnn5djVmPVvVo9m91bmV2hzj+n+Sc1Mo+6EpstM48NT9WJ6mitst/VTvTEg6qqrRzmHrHb1Pnn5RdVdXN1r0az9v3As812rHoAOU2+PeoqdSU2PyqHH9JgdbJm22f2luiJB1VVuzsMPmLp/go0QY1fVJepe7W63y+jKKV+2VrvSY0keu9CaW+/Svb6kqqPslpr1VddotVgj8nHa3l1/jk5XjtykbpXq8f9MorSMuoB5PTlpEauVVdiU9oXg59QJ2v2ZFZriZ54UFV1pMfgI3aDegA5/ZDdYlGuVPdqtb5fRlFK/bqCYyf20bqNuhKb95TDD+lxdbJmb2W1tpO6QqszPAYfsXfVA8hpLb+oFlD3anWKX0ZRul89gJw2ntjHwupCbMp7rNH76mitzs18TPF36hKtLvYYfMS6qAeQ08tuSaX6/aiqahG3jOKU6Mtek/17Yh/fqguxWbPR4STsK3WyZtlH9+2iLtFqjMPgI1af+lHuR7hF9ay6Vas2pT1JuzLpfu5OdNDERnqrC7Ep7WUZj6qTNcu8TrlTP3WJVpt6TD5ed6rzz2sdt6gWVbdq9V+3iOKU6NvbU0z6jPpOXYjNzdLpB/SROlmz/2W19pq6QqvazGthyy3ZwU0yl1tU36hbtbrHLaI4HaQeQF4TfzJp115diEntV9rxhzNOHa3ZUlmtraau0Cr7Wthye0U9gLz+4hbVf9WtWmW+c1pyY9QDyOvgCX0spa7DprynILytjtYq+2tsoiceVFVt6DH4iCX/YbeoV1KJfj/61SteEUXqn+oB5FQz8RmIrdSF2GQfSpaoIbXqaK3ez+xtLXWJVsMdBh+zk9UDyOs+r6Q2VXdqtpFXRJHqrR5ATqdN7OMedSE2pT1b+011smZDs1ob1F1dotW/s1orud7qAeTl9lBjM3WnVn1LezVGhWZXTyCnSRdpbKcuxCbz99pU/axO1uwfWa3tpa7Q7DWPyUfsJPUA8nK7mbGPulOrZb0SitVy6gnkNPuENobUqAsxqSvtzUDfq6M1y7yffh91hVbtB3lMPmKj1BPIy+3jItlt4WuvhGKV7DUTE018SyHRv/AuqR1+QIn+xeRXO2S19nt1hVbLeQw+Zi3VE8ipuVdQK6T5/ehXt3lFFKmd1QPIa8EJffxHXYfNN9rphzM62U+E7q2zettCXaLVOI/JR2wF9QDy6uKV1PXqTs3e9IooUkurB5BX/wl9JPrW8xXa6YezjTpZs8yTpjavU5dodbfH5COW7CV5k7j9QLyyulOzd7wiitR96gHk1WFCHz+o67D5P+nwA0r0LcJfLZPVWrr/VznOY/IR+0Q9gLzcrvr+QN2p1fNeCcUq0T9VT7F6Qxtd03zreUTmn3dT9Wd1tGb/yWrtr+oKzc7zmHzE0p3cRPN5JZXsqVDneCUUq3XUE8hrwps4+6rLsLlcOvuQkv2duerorNa2V1doNaLaY/IRu1I9gbyecQoq0e9Hv/rMKaFoza+eQF5dG9p4Ql2GTWmvp0735Miq57J6u19dodVaHpOPWepnblSt6BRUujclXuWUULROVE8gp8UmtHGAug6bC7TDD+cadbJmL2W1lu6Ztn/2mHzM3ldPIK/DnILaW92o2Y1OCcVq82Q/nSbaYkIfT6nrsHlMO/1wNlYna7ZtVmu7qys0W9lj8hHrkezrCZO0cErqcXWjVrVfOCUUq+RvQ/+loY111WXY9G0lHn8wi6ujNftdVmvp3vOe+XRAyV2oHkBetRs4JbW2ulOrgU4BRetF9QTymvDcZ6Lvo5whnn44yd6mXDUmq7U91RWaDfOYfMQS/ZSY4lCnoAarGzV72imhaP1FPYG89m5oY311GTZni6cfTI+R6mjNrsnq7XZ1hVanz+r3UO2onkBef3IK6hV1o2ZzOCUUrd7qCeS1UEMbv6jLsHlRPP1gFlYna5b5I9yd6grNlnAZfcTmU08gryOcgnpG3ajZp04JRWsJ9QTy2qahjV7qMmw2Ek8/mCvUyZr9kNXak+oKzdxOJYnVy+oJ5PV3p6A+VDdqdplTQtF6Xj2BvBr2xI3UVdicpp5+MAPU0Zodn9Xa3eoKzfbxmHzMkn9rrZlTUIeqG7Vq38MpoVglf9fayE7j20j00b4N1eMPZgF1tGbHZLX2tLpCs+sdBh+zdsleADjJJz5BvaDu02yUT0DxSveWvIkOaWhjM3UZNl4HObrrPEIdrdnDWb3dq67Q7CuP0UdsPfUAclvEJ6jj1H2afeATULyuU08grw8b2kj0x7EnxdMPZjd1snZZn5nD1AWanegy+ohdpZ5AXjWDfIKaQ92o2bE+AcUr+atZzh/fRf256jJsSnt177zqZM3adMpoLd3rhh9wGX3ELlZPIC+vU1NOUjdq9i+nhKK1qnoCeX07vosW6ips3ldPP5hL1NGaXZ3V2jHqCs0W9Jh8zJK/h+okn5zqH1Q3avaqT0LRqu6onkBeN49v41N1FTZeb5X620UdrVnm/SUPqCs0u8hj8jFLd5+aaHmfnE5V92nWsbRHaVfoMfUEcmt4a21BdRU2/1GPP5SE/5/4c0ZrCX97Wdhl9vF6Sz2A3JzeWptb3afZAj4BxesU9QTyalM9vo131WXYrKQefyg/qZO1Wz2jtYfUBZrVbO4y+3gdpJ5Abk4P0f5d3afZ730Cile6PwhO1PDeYau+6jJMandWjz+UndTR2r2X0drD6gLN3vaYfMySv7bC6/LUR9R9mu3oE1C80j0kY6IDxnexg7oKm+XU0w+mrTpasy2zWptLXaHZAR6Tj9n26gnk1b6zS06tWqobNcv6+1rpJXtx1CQNl+tcqq7Cpo96+sGke0HAI1mtpfvt5WSPycdsC/UE8rrLJ6dF1H3aveeTULR2rlVPIK+Gu9Z+p67C5jr1+ENJ9CeQ8S7Oai3dby+ZR+CVXMI3+k40zieoC9R9mr3kE1C8kj/4tWqe8W1crq7CZi/1+EN5TJ2s3WrlbW0Hl9nHK+HTCye62yeodM/f2dYnoHh9pJ5AXg2X63Tupy7DZOQG6vGHspA6Wrus/2Sl++1lZGuX2cfrW/UEcjvOJ6hl1X2aXeITULyOV08gr4aH3BP9r/da6ukHk+5rL7UrZLSW7uN+37mMPmJ91BPI7TyXnBI+RGJRl4Ailvxl6KuM72KMugqb19XTDybdB8e6ZLWW7reX7T0mH7Nd1RPIa0S1S07zqPu028YloHi9qh5AbgeOb+NrdRU286rHH0qqV+X8as2M1hL+9rK3y+zjtUfyDwA7/Ukv4TvpuvokFK10fxCc5L7xbbyhrsLmMvX4Q0n4/4n/zGgt4W8vPV1mH6+e6gHklnnNQDFeV/dptrZPQPG6Uj2B3MYfnTRopLoKk45Z93QmK+HzhM/MaC3hby8fu8w+Xune8T3Jyj5BLaDu0+xHn4DilehX2ymaj/9VaS91FTZj1dMPZrg6WrvHMlqbT12g2WL1LrOP1znqCeS2r0tOrduo+zQ7yyWgeG3eXj2BvBo2xY3VVdicrx5/MLOrozUbkfVXk2vVFZpd7jD4mFUvpp5Abne6BLWwuk27nVwCiteb6gHk1nZ8G7eoq7D5VD3+YI5UR2uW9dhRj3S/vazjMvp4vaYeQG63+wSV8Ov63XwSitYa6gHk1mF8G4ke0fyqePrBnKBO1u6WjNbWUxdot5XL7OO1qHoAuT3uE9Ti6j7Natr5JBStD9UTyG38aZbt6tRVmJxb2t80j1NHa5d1+2LC3152d5l9vP6sHkBua/gE9Z26T7P7fQKKVvVL6gnk1fCg+DbqKmxOUo8/mGPU0drdnNFab3WBdoNdZh+vH9QDyM3nmbh26T5YdatLQPFK9Onwqcw5vo2/qquw+Yd6/MH8oo7Wbt2M1vZTF2h2pMvo45Xw2QiTvOMS1FLqNu3WdwkoXk+oB5Bbw12X36ursPmXevzBHKqO1ixr10v428sZLqOP1//UA8htf5+gtlL3aZd1iETZza8eQG4Nryncr67C5jn1+EMZpk7W7pyM1u5QF2iXdc972R2hHkBuWacSF2QZdZ92F/okFKvNu6sHkNtPv7YxJM0jmg9Vjz+YT9TR2n2W0VozdYF2Y1xmH61WD6oHkNuxPkltp+7TrE1pj96szNHqAeTWcvw5cYepq7A5Xj3+YJ5RR2uXdV3O9uoC7TZ1mX20nlXnn99hLkF9UaPu0+y/LgHFa0H1AHJrOLr3I3UVNk+oxx/M0+po7dbLaO0QdYFmtTt7jD5eiX5KTKVuBZegVlL3abeMS0DxSvd9w0ka7k7dU12Fzerq8QfzlDpas5rRjXc2JN1vL+/7zD5a6Z5GPInT3an/Ufdp95FPQrEanOZvz1Nr+CPU++oqTGq/Us8/lMHqaO12zWgt4aOSP3SZfbQG9VMPILff+SS1irpPu4N8EorVv9X559bwR6g91FXYvK0efzBPqqO1yzpbs7+6QLvhLrOP1u7q/POb2yepLuo+7U7wSShWv1fnn9sb49tI9NG+G9TjDybh0w2eyWhtnLpAuwtcZh+thC/0nWQjl6C6pvt3276lPUu7Iq3SPf5jkoY/Qh2orsLmr+r5B/O4Olq7TTJaG6gu0O41l9lHK9H7m6bylE9Qq6v7tFvWJ6FYJXoC+tS2Ht9Hos9Ub6OefzBpPtPQ4LzGO0v0153x2g/yGX6kSnDu6wc+Se2t7tPua5+EYpX+S2sT/gh1r7oKkxqfd1AEvlJHa9evuvHW9lUXaLecz/Bj9bM6//ya+SS1prpPu9t8EopVwg8/THT7+DaeU1dhs596/ME8qo7WboGM1o5VF2g3zmX20VpWnX9+Tr+ZpPvOadWbPglFajd1/Pn1Ht/H4eoqbHqr5x9Mwid4ZA3leHWBdne7zD5Wg9M9P2CSLVu5JLWuus8cfC6ji9U/1fHn1/Dg7snqKmwWVc8/mISfBP9DRmsnqgu0O85l9rFK/6a1qj19kuqp7tPueZ+EYpXuxc6TDRvfx4/qKmyeVc8/mLfV0drt3nhnif660yDjcb+SS/RDYmr7+CS1vrpPu5d9EopUCR77PKShkdPUZZi06SGefzCJ3n3XYHDjrSX66854IzIe9yu3IelfK1m1iE9UG6r7tMu6KbHcVlbHn9/r4/v4WF2FzZ/U8w8m4bsdTstoLdFfd8ZzOgc8Up+q48/veadDU3qpG7W7yiehSJXgsc+Hx/dxproKm+XV8w8m4ReEsv5ml/Afbm9xmX2sEn6sY5LtfZJ6Qd1nDjf6RBSnt9J/7LO24Q+kZ6vLsNlJvQCC+V4drd35Ga2l+etOg5VdZh+pzRdTx5/faj5RbaLu0672C5+I4pTweUCTTHiT+wx1GTYXiucfznbqaO1WbLyzRH/dabCvz/Dj1EGdfgFO9YlqM3Wfdj/4JBSp5dTx5/fl+D7qz1WXYbJYaZ9RGp3wn34y3jw4RV1fDsN8ph+n9K9Cd9utEo7qaaeIorSXOv0C3Dy+kT+qq7CZX70Agkn4hoCazRtvbS51gXanz8r3UD1Xp44/P6dnbuq3VDdqN4dPRHG6RJ1+fs0bbptI9E73s9QLIJit1NHaHZLRWqK/7oy3hMvsI5Xw0YWTHeQTVcovM3/qE1GUWh+pTj+/CX9hOV9dhs0p4gUQzp/V0dplnMWV6K87Da70GX6cSnCE1oh2PlFtrW40h8t8IorScerwCzDh7NSx6jJsPhYvgHASvnc647jzx9T15eB0zFiUnlWHX4AfnbJK+AbO9qU9qqsCB6jTL8BD4xupbq4uw+RI9QIIpl17dbZ2GcedJ/rrToPPfaYfpYvV4RfA6erU2bZVN2q3hVNEMfqqBCchTrjf+Sd1GTa/iBdAONeoo82hReOtfaauL4evfKYfo84Jnx4wmdNJ/K36qhu1W8Unoihdpw6/AA0vrc22oroMm/XFCyCcfdTR2nXMuJ8y0V93xrvXZ/hRSvgA/sm6OGV1obrRHI51yihC9aPU4Reg4aW1VJ/Wf0W8AsJZXB2t3aqNd5borzsNHvAZfpSOUodfAK+DondSN5rDv5wyitCj6uwLcHrrhlZWVddhc7B4BYRztTpau8Ub7+wydX05LOgz/Bi1SPigo8kedQrrd+pGc3jVKaMIDVVnX4DvGzpp3UZdh8n+4gUQTo+R6mzttmq8tXnV9eVwkc/0Y5TyHjXJxG8v4e2i7tQu6wezEjuhBAcnTXyRu5u6DJtbxSsgnIXV0ebwZuOtXamuL4eFfaYfoRVaqrMvwD1OYXXqp+7UbgGnjCL0pTr7ArSZcLPO/9R12HwkXgHhXKGONod3Gm9tAXV9dlln2pbYbersi/CiU1ivqRvNobdTRvEZfbo6+wJ8OKGXddR12BymXQEBDVBHa3do450l+utOg119hh+h+oTv/puszQpOaa2m7jSHHZ0yik/CLxZNcdWEXv6rrsOkdmftCggo4a+xJzXeWcrnja3pM/wIHa2OvghDvdJK+L/jbs8NRqf+LnX0BahZt6GXQSPVhZhsJ14C4XQeoc7WLuNJ8EXV9eVwss/0I/SLOvoizOuV1rXqTnN4ziuk2JThnbWqsRN6SfRYsmW0KyCg3dTR5nBp4619o64vh4d9ph+fUryzVpfxcEdheiR8gOiWThnFJ+E7IKeY+INJok+83KZdAQGl/GpXt8ZbS/PXnQl28Jl+fFL+X9hk73qltZ660xy29QopNpuqky9C7UYTmkn0qs5rtEsgoEQP7huvboNGO0v50pnuXq8xx+aFhL9yTuF2U17KT1d5naUXnZPUyRdhiYnNpPk4QPvGt46UJXwwRcaDDUup68thSZ/hx+d1dfJFqBvsFVdvdas5LOoVUmRuVAdfiIn/Zx2d5i9kV2uXQEDVHdXZ2h3ReGvN1PXlsL3P9KMzLOE3DafIePuiQPupW83hDreU4lKGmwom/5/1enUhNl9rl0BAS6ujzeHAxltbRl1fDn/xmX50ynDqa1XVil5xpfyrUlVXr5Ti0q1WHXwRJv2f9Wd1ITarSZdASCW+rCnlA0p6+kw/NusmfJDpFN3dtqo71K3msLZXSJEpw7UsU/7PeoO6EJvXpEsgpM/U0eZwaqOdfZHmrzsTfOw0/sicr869EAe45fUHdas5HOWWUlR2K8UX9Mn/Z31bXYnJiM7SNRDSEups7Zo3flnTSur6clis3mn8cRmc8AMdU5nbLbB71K3mcJZbSlH5UJ17IZ6e2M1Naf73ZE7pEgipVV91tnaXN95aor/uNMhorazK8QW942i3wFL+VWknt5Risrs69mJM+j/rzepCbD6TroGQHlNHm8M6jbe2irq+HL7xmX5kWpTiHfSq790CG5Lyr0oZp0KVU/WS6tgLcfqk17j3Vldis5B0EYS0kDraHDJO7/tBXV8OW/lMPzJrqmMvxupugb2pbjWHunZuMUVkjDr2Ysw3qZ9b1ZXYnKdcA0H9XR1tDis12lnXNH/dmaC8l/U2ItFXWqf1VLVbYv3VveZwiFtKERl9rzr2Ytw4qaH91ZWYnN7401cpe0SdbQ53NtrZvury8nA7aSwirRK+x3dqc/hFNk7daw63+sUUjznUqRfjkEnP7N6prsTmZekiCKn+XHW2dvc23toT6vpyONJn+nG5VJ16QR7zi2ygutcc1veLKRrDyvEWR9VHkxo6SF2JzWbKRRDUq+poc3ig8dYOUNeXwxk+04/KBmn+9W46y/pFtoe61zzO9MspGt+rQy9GzVuTGnpGXYrNccpFENQp6mhzyHiP9UR1fTm09Zl+VBL9bJjOFX6Rra7uNY9F/HKKxecpP9YzlSlHAiX6Uv1bjQwpbcPV0ebQodHODlaXl8cYn+nH5OOS/DWy385+ma2hbjaHNp38corEoEPUoRdkysFJh6pLMXleuAgCS/lm3t0a7aynurw8NvWZfkweUGdeEL+X0NP+Vam891fOVEmeiKs6ctCkjt5Sl2IzVLkKwjpSna1dXeNX1P9TXV8OtUOcxh+PlO8I+o3G36Us1onqZnNYxjGnOFw2Up15Qc6e3NJ96lJsMm7pTNgJ6mhzuKvx1lK+dPh9n+lHZI/T1JkXZDvHQ/jXVTebR3+/nOJQXZK3MqtqW0zu6R/qWmz2FS6DsI5TR5vDKo23lvIO8aHP9CNSksd/fY/4+0TdbB4HOQYVhR3ViRflxyk9JfqLbeMHmKTsGHW0OTzRaGcp/+2hxK9JzsTR6sSL0s/tJvTZ0v5VqWojx6BicMJi6sSLct/knuofVNdi8oNwGQT2izrbHA5vtLMX1eXl8W+n8cdi85SP3f+N33vGtqG62xxazmL3A7d6WZ14UZ6a8nrCqepabDL+tpuyNN86mODjRjtL+X28qtecxh+LS9SBF+bG7GaL00vdbQ6Ox+9E4T/qwAvzzJSmHlbXYvOzbhkENkwdbQ6LNf5f/HPU9eXQflCjrZXOkyU5b6Oq6r+esSX9q9IAz6T0ni3HxcC/qnthSldnqYuxuV63DgJL+amaXRrtLOUz6rOe3y+b5xJ+d3IajqfEzTbbJupu88i4+rhkhnRR512Yqe/UmV9djEnNF7J1EFrKp202/l/889Tl5THOafxxqE75wr/fOne0Z3BJ/6rk+bq+3j3quIuzzZSuWrVUF2MySrcOQntanW0OGzfa2ULq8vIo77kHM3KsOu7iZNwuULCkH7Mq75tDMzCvOu3irDVVW4uoi7G5RbYOgntKnW0Ojf8Qcr66vDzKexfQDNzRXh13Yeoaf06zYEn/qlTi07Sn16KvOu7iXDBVXxeoi7HZR7YQQhusjjaPrxptbQl1eXmc5zT/GOw8UJ12cY5wTa6Fut08XnaNSmvzJdVpF+fQ1lM11lZdjc3CspUQ2pPqaHN4qtHOqpur68uhX7XT/CPQKuX7Raa1TXa/BfpU3W4e57tGJVW/ijrsAh07dWfLqqsx6d5DtRKCe0KdbQ5HNdrZT+ry8rjWafwxSPmowmmtld1ukb5U95vHVb5ZKSV9nt802gyeqrHqNC88XuD/27vzgFvHcn/gOHY0KVEnFZso7GqLt0QDpVTs2jQYSjJG09FpQqdBkyjSoPEkldNOqGhCJ0kDxU7zpBK2SpzmuZR+afgV9lre937Wer7rWj6fv/af1/Vd133vdw33/cQmYezOSWfbwY2GdvamdHldTPGPNq7ti1NzAn1e7/f7XZTut4sn9ptV0EOnacR/8a+d3SRdTZvjUpMwfpems+3gDUM7K3312PReZHRte9b8G3/5zljj+hseoVUq3w0+s3GvWQVtPk0jPvOHf22t6G/335QahbH7WTraLm4ytLW3p8vr4pCeXv+4Z1U+ZXEd9+o3vF3T/XYxxY/HuKatnpaOepQOvkZvt0iX0+aOoVEYv1PS0XYwf+gvG9ZYM11fF8/rawDC9ts9nfQo7Xxyv+k9Nt1wF+f1m1XMNlM14vPWu0Zzx6fLabL+BgNeq/ouS2fbwfDbft6WLq+Lo3t6+dMWT9H1WX/x6p7j2yjdcBff7zmskIUHp4MeqUdfo7mi75ouCs1CD5als+3gvUM7+3O6vC6meOKuoeiTHQZY8+Ke4yv9rdIVPYeVsdpv0jmP1jW/C7xNupw2twoNQw8uTGfbwZOGdvaLdHldTPGvMP/V09M5j9Yteo5v4R7pjrt4a89pRSwu+iXzIFdd8/mWt03X0+bGoWkYv4Mqn6fYemhrV6XL62J6byb8V79Mxzxai27ac357pjvuYvgvYKZF6YfnLMcnr9ne7dL1tPlEZhh6cNd0tF28dFhn2yxJl9fFj/sagKTfL0jHPFq/6TvAC9Idd/HwvtNKeEQ65RHb9Fq/Jvt1uqAmOyxe/qs1Ba5MZ9vBzkNflu3S5XUy/JL66XD59DyR5W/27DvBfdIdd/G9vtMK+GXlD0CX51qX+61Tcwn/LjMNfdglnW0HKw/t7N3p8ro4tKeXP+mUY9Mpj9jB19/ziH0r3XIXn+k9rt49edr+P7/0WvcmrZcuqM3hmXHow07pbDv45tDOdkyX18XHe3r5g55Z+gddy9P7A5z2W5JuuYtf9R1X7/ZKRzxyd7lWh0W/Ubg8Mg59OKnyt5jDfzi2Ybq8Lr7R0+uf88kl6YxH7SW9Z/jEdMudfK33vPq1eLqOZF7tCde+2PhO6YraXJyYh148Kh1tF0MfVLlx5T9Vpviq4b97Q80v34aY6f8Jyw9J99zF+qv1nlevFr85nfDoveXaTdb8gHf4U7dLWzGdbRebDevsS+nqOvlcXwMQ8uTSf24t1zn9p/jUdM9d3L3/vPq0ygfSAY/ehde+MPUnNZfxvSMT0YsT0tl2cN+hnd0tXV4XCx7W0+sfMn1fLs6bGf6goLF4eLrpLrbtP68ebTxd973+zbrX7rLooefhF5KVdkA62w4eOLSz76XL6+LxPb38GRvsls53DPbvP8d1FqWb7uKj/QfWn1ecmI53DB5/nSea/DFdUptTEiPRi6LHCP/msKGtbZour4sp/kxohRVO/ko63jFIvEE/Nd10J/fsP7DefOmsdLrjcN279zdJl9RkZuh3taW9K51tF7ce1tlmpU+ATvE5yRVee2Y63XFI3JLy0XTTnVwcSKwn/7NFOtxxuOq6v2L8bbqmJmcGRqInT05n28XQZzt8Ol1dJ58c1lpte385He44LEmcwap8KdS8HQKB9WOVabu+/e8+fZ1Oi75r2iUwFD0perX+Xy259pnIa7hXurxO3tjXAPTugiXpbMdit0SWpT/quGUisT589+PpaMdjOS/YPdM1tXlE/0PRl3ems+3ggKGd3TtdXhdbLOzp9e/bNqUvHx9sra0CYZZ+UOK8jQKJ9eE5B6aTHY+Z912318+ki2qzXv9T0ZMtl6Sz7WD4o63umy6vizv09Pr37Y2VD1UMszSR5nPSXXdy20RkY7fB0pons6/f8n4kUvNd06LpPRN8m3S2Xbx/WGdbpavrZEq/5Fl3/XSwY3LETxJxXpZuu5NTE5GN23cuScc6Lktuupx2z01X1WRa3y79xTvS2XbxzGGdbZ2urpOhf6tU9ZPfpGMdm3dHAn1uuu1OTo5kNl4P3SGd6tgct5x2i75r+kXvc9Gb0t9ofmFYZ0vT1XWydV8D0KN3lb4YYKjfDv155thcmu67i+HXPJb03dLPdxxu5+X9SKTou6Z39D4ZvVk9nW0HRy4e1tkD0+V18sO+BqA32xxW+laz4Y6KRLpvuu1OXhDJbJyOOiKd6RhdubyOH5Cuqs3b+p6M3iw8Np1tB7cf2tqD0uV1sdbQv1UqWq/mU5lmZ+XMy3VIuu9ObhTJbHy2+mA60XHadMvl9VzzXdOxmc/T+vD1dLZdLO9Lnf/vwenqOtm9rwHoyTqHTetPf6+2IPRkvKJnhv7usZnQxmTxXY5OBzpWv1pu1zXfNU3b7vovbpbOtouhx15enK6ukyn71cZTSn/Ze71STw17SbrxTqbqc8/Np/bH7X/zyuV2XfRd05t7Ho4ebZTOtouhx162T1fXyYp9DUAfXrEsHed4rfWsULCHpjvvYtE2odTGYN+1p/j3IVdbtPxLth+arqvNG3oejx7tns62g5nHDeus9vO8ntPXAIzfw5ZW/p3GbFwWSvb8dOOdPDuU2ugtXPHm6TDH7RbL77zou6az+52PHq1S+Z6PDw/rbHHtb7T+o68JGLfFR304neW4/Xa/ULaXpzvv5IOh1EZt8cdKX6g/K0d/d/m9r5QurMnO131m3LS4YzrbLn4wrLOvpavr5Ii+BmDcTn17Osrxe2gq3MPTnXcSuSt39Pa+ezrIHvxy+b0vrnmLzvJ/DzAVHpvOtovth3V2Rbq6Tl7T1wCM1xMPTgfZg4/H4n1BuvVOMkf3R+zUW6Zj7MPxqyy/+5umC2vz6n5npE8/SmfbxRXDOvtpurpO1u5rAMbpD8tKPwtsltZ8bSzg2teYTMEXmeu9Jh1iLxY8cUD/j0xX1uaLvQ5Jr26fzraLOw7r7KJ0dZ3co68BGJ9dbxD/nSc/Of5huvVO1twgFtxorLZ1zW+Q5+6/B0Vwq3RlbR7c55j0arWd09l2sGTYdT+lO5s37129jcCYnLpsys/x/MOFqV/ErbDCUeneO3lnLLeR2HLd09MJ9uX5PxsUwqPTpTWZmh8oXdfZ6Wy7GPoIvNK/9ps3c1BfEzAWq21d+TTk3Ax94N94vTrdeyd3ygXX3Wl7nZHOrz/rDkqh6LumoT+mrq30L8f+d1hnb0lX18mlfQ3AOJy04nRfC3cN+weDrn3TQurw/gicesK036zwry4a+JyCXdOltflIn7PSr2+ks+1ir2Gd7ZaurpPCf0P+Ybcj0+n1aK3v5JIuftNC8KONTg664A7p6Hq15hsHRlH0jNRne5yWnr0ynW0XQ1+X2sefhx7Im2D7HXVD+Z3Q330oGPbr0s13U/KXSYt//L83pDfnV3vR4DSKvmsacEnOFKj9N/6wN0elnwo7b97vexuBUdrzuKm/AfNadh9wPrcXt05338nOBZ8P/Mal038n3LX9euHgPGq+ayr9feZwpW9TO3rYjvC2dHXd3KS3ERiZ76w45Y+bWo4tdk0m/vp0+52snIyuxQ1xwOfNWzDkvM3CPdLVNXlufzPTt5ens+3iomGdXZCurpP5W/Y1ASPyswsuuWEcOr+m7K9rat+08PNodnP1wxVXviEO+Lx5txoSyp7p4tr8sbep6d1h6Wy7GHjbwdV+nq6uk9P7GoCReNY9XnYDOXN+LQ8fdhHC2K2yarr/Tt6dzG5udl16/A3zf/N5855w0pBc7pGurs1dexuc3r0snW0Xfx7W2TvT1XWyrK8B6G7XvS5ZkI4rZMF20eRr37RQZVs96fKfH5iOKmdm6FOc90mX12T4Q7dre3463C6Gbaf7LUlX18nTe5uATrb59JufkI4q6EfZ9GvftDDvtGx6s7HBeh+5/ZJ0TlHDvxf5Vrq8JrU+/pyTl6az7WLoH1rvS1fXzYt7G4Fmq33usq/UPknQ1YUPy74CG6UD6OTz2fCu12p/+NB5Ne9BG6HfbjwsoqLvmk7oa4T69+J0tl08YVhnD0lX183r+pqANovP/vP+NR+EPEKL1gu/CsekE+hkpXB6w6xz6orLzkoHNAEWfGloTE9M19fmIT1NUcAL09l2cd6wzk5IV9fJHsnTzddjg81XXFb7qZ0jclj4hSh+00L4+4pBFn/txrd6+5J0OBPip8OzenK6vjaDHgU7Bf6UzraL7w/r7OHp6jq5T18DMEcv/eKNLlkzHc6EOCB9srD4TQs3C8e3HBdvvfTg0r8qGrENtxme11PTBTZZcj1dVVb655s3HtLYSbWPUX2gtwmYtas3uwelc5kg8z+XfkWKnhn6h/el8/tXB633jo1u+eV0JBNm/m2uJ7Wa75om9d3SCJyfzraTYZd0/ThdXDdX9jYCs/CTd93jza/xjeK1DLnguie1b1qYGfpzq/7su97NXv3AG9DDAefg/64nunVqvmv6Zi9zFXF5Otsu1hxyxfAKH01X181TehuBoX623ZsOO/gJ6TAm0jEbpF+comeG/uG36fj23fyhl2175xv8TzsHW33YBnu1R6UrbDOB3/WMytJ0tl1cNayz36Sr6+Z5fU3AAH/Z7Pa63crelQ+06mvDr1DZM0P/MPQnreN08uZbX3DYsuNvSI/4bXL9I/6MdIlt3trHlGWcl862izsN6+zCdHWdDH3qzDidvPlRK9rsZmEC/sovemboH75yQf/ev8/vNqx9NKBHj73eCdwlXWKT9fOfrY3Nuelwuxh2w/7JtW9evjSw2d3r5x/fyWY3S5PwuKZ3p0Ngms3i8umaT5K9/fiXZsp309l2Mux75lPSxTHN7rtZb2t0sA+kU2CKPe3k6x3Ag2q+a7qes/WVHZLOtpPzh3T2pHRxTLEFE/FYkRPTMTC95s/isUPPSRfZ5pHjX5opn0ln28UOwzo7J10dU2xpXwt0mOI3LTDRPjOLCdwrXWSbr419acaU/m/vlsM6e1q6OqbXMdd3nKcXRc8MUcFXZnP19HPTVTaJ/eC4B6WvU9htSGO1fxzARDvrC70t0GEek86BqXXgs2YzgTX/+3jZuBdmzs/S2XZywZDOvpoujqk181+9LdChit+0wOSa/6jZDOC+6TLbDH0CSG21fwr+riGdlb4wh4n2wr6W5/V4fDoIptXdZjWARX9S/asxr8ugy9LZdjHzkyGd/SBdHdPqUxPyYNuiZ4aYfAfP7lvmF6XrbDPscFRxm6Sz7WLoVdClHyLHBPv8rL5d7MHe6SSYUpf+bHYT+JJ0oU0OHO+yjCp9PepLhjT2hXRxTKn5P+5tdV6PomeGmHRrbj7LCTw0XWmT/xzrqoyq/aHd4UM6+1i6OKbUXr2tzuuzfzoKptP/zHIAiz56+15jXZVRd01n28nLh3T2b+nimE73npwzrB9OZ8FUGnYa+Br+K11pm0+Pc1Fm1T7I+u9DOntZujim0unDfojZr9PSWTCVVl5jthN4eLrUJjOz/IFARTUffvd3aw55Bt5iz/FmDL48QZdGfjYdBtPo0ItnPYEvSNfa5MLxLcm4DdPhdvGtIY19LV0c02jBIb0tzev3kXQaTKFjbzP7CTwiXWyT945vSaadtCAdbhcnDOnsxunimEazu26jJ+el02AK3WX2A/jDdK1tPjq+JZlW++EOVw7p7Bvp4phC+0/OD+L+4ox0HEyf189hAI9KF9tmVpfa1rRiOttO7jmks1umi2P6fGud3lbmLDwvHQfT5wVDfpd0Ha9OV9tk0UljW5JxJ6TD7WTIhV2r7Zwujqlzxnf6W5mz8Kt0HkydEw+aywS+Jl1ukwPGtSAnwAHpcLvYYUhjb0wXx9TZ4/59LcvZeWE6EKbNgXN6KvDio9P1Ntl2XAsyb5356XC7+NSQzh6bLo5pM/PJ3tbl7PwunQhT5tj3zWkAX5uut81tx7QeJ8C70tl2svaQznZLF8e0+WNvy3J23LTAaM08cm4TeOt0wW1me099QU9OZ9vJsAuHd08Xx5R5am+rcpY+kU6EKfOkOU7g69MFN1lzy7Esx4lwu3S4nTxxcGML90gXx3S5aOK2gZenI2G63G+uE3j7dMVNjhnHYpwQ70yH28XMxoMb2zNdHNPlxJP7W5WzdKN0JkyVH8zlwNrVVlk1XXKTjcayGifClkvS4XYx7Ebee6SLY6oc+uDeFuWsvTIdCtPk7g+b6wD+IV1ym8eOYzFOhs+ls+3k3kM62yddHNPk5jfpbU3OWtEzQ0ymC/9jzhP4pnTNbd44hsU4Id6RzraT/xvS2bfSxTFFtti7tyU5e2enU2GKHHHTuU/gf6eLbrLWKqNfi5Oi9vvYowY3tt+SdHFMj5nf97ckZ+/36ViYHuvP7QD63xyTrrrJLUe+EifH6ulwO3nt4MaemK6NKfKM/lbkHNQ8M8Qk2mLYUzEGWXhsuuwmrxr5SpwYRV+Rvzt2yEcnv0wXx/R4dX8rci4uSefCtFj08pYB3DxddpumXmv4ejrbTu4zpLMPpItjamw7UU9M/f+Knhli8swMu6FrsKK/wHrpiBfiBLlZOttOht3c9fB0cUyL/Sf0NzRFzwwxeR7TNoH3S9fd5PmjXYYTZaN0uJ18dHBjJy1KF8eUOG9hf+txTu6SToYp8aLGCax5K9mfRroKJ0vt+85PGdzYj9O1MSVeuV9/y3FujktHw3QY9oirYYqeJHrASFfhRFll/XS4nWw1uLOPpmtjOhwz5HbhsJpnhpg032z9iUjRJ3V+daSrcKLcMZ1tJ8O+C9klXRxT4arNeluMc7XGmulwmAbbrtY6ge9Ol97mWaNchZNl3XS2nbxmSGdnpotjGmw499swe1P0zBCT5QPN/5+vcEK69iZPG+EanDQ/SofbyY8GN3bQTLo4psBOQ77UiftzOh2mwCYdjnCcmC6+yQdHtwQnzkXpcDu52eDG9k7XxhTYaaI/nPtFOh7qWzbXB6b+i6IniS4b3RKcNKvtnA63k9sM7uyydG3Ud+bFva3EFlel86G853b4/3yF96Srb/Ocka3AiXN2OttOFgx5eu/+6eIo78zz+1uJDbZZkg6I6jbp8v/5Co9Jl99k5nGjWoGT54p0uJ08fkhnl6aLo7pnP6+3ddik6JkhJscunf4/X+G96fqb7DSi9TeJvpEOt5MhP244LV0b1Z1+cW/LsM2H0glR3D7tv2//q8enG2hyp9Esv4n0ynS4nSwd3Nhn07VR3Lf27W8Ztql5ZoiJ8d8dHzl0cs2TRB8azfKbRIuPTofbyUMHd/aRdG3Utvrk3ifzD6enM6K0w7oO4CnpDtq8axSLbzJ9LZ1tN68b3NnB6doo7aKf9LcKG520IB0SlXX+/3yF96dbaDJ/mxEsvgn18nS4newx5EaEM9LFUdmnTupvEbby9CHazazYfQI/mG6iyTu7Nz6xDkuH28nqgxt7Xro2Kvvglv2twWZXplOirvl3GcEEPi3dRZOfj6DzSfWydLidbDu4sY+la6OwD3Q7zNOTmmeGmATrf3YEA1j0JNE9RtD6pHp+OtxOnjG4se+na6OutTv++LcnF6ZzoqqjTx3FAD4z3Uabr4+i98n04HS23Qy5we/j6dqoauZu/S3ALoqeGSLvwJuMZAJrniQ6duFImp9IL06H2813Bza2+Kx0bRS1aMgDfyaKpw/R5swfjmYCa54kWnk0zU+kw9PhdnLE4MY+ka6Notbfur/l182T0lFR0+6D3wjNTc2TREMeuV3en9LhdrLS4MY+ma6Nms5ar7/V11HNM0OkfXBUx7C/k+6kza1H1P4kOjAdbic/HdzYq9K1UdLjb9rf4uuq5pkhwtbueH37PxU9STTkNrLqzk9n282bBnd2y3RtVHTnib++/Z+KnhkiatFDRjeB30830+TIkf1BM3kuT4fbzecGNrbazdO1UdBzK90JWfTMEEmrjvIXIjVPEn1lhAlMmqXpcDtZtM7Axv49XRsFje7DyD48PR0X5dz3bSMcwKInibYfYQST5rx0uJ08e3Bjv0/XRjlbjOIuzB7VPDNE0Le+M8oBfEW6nTYvHmUGE+bcdLid7D+4sTena6Oas77U37obiZpnhsj53mi/USp6kmikf9RMlu+ms+3mI4M7u3O6Nor59Yju2uhN0TNDpMwsHfGFxjVPEh042hAmyiHpcLsZ/NnJBnuka6OWPx3U47obiaJnhghZ62OjnsBPpVtqct6oY5ggn0mH283XBjb29XRp1FLr53B/9cJ0ZlSy6VtHPYBFTxK9aNQ5TJDaV02tP3gTvlm6NipZv+LdUTXPDJHxp81GPoBFTxI9ZeRBTI5L0+F2cszgxr6Zro1CPjz4PoPJVfTMEAkzh43hE6g3pLtqc9rok5gUm9V+/OIvBnd2fLo26hjDm5ceFD0zRMDOYzmptXa6rSa/HUcUE+KUdLjdrDiwsS3XTNdGFWN589KDomeG6N9O/z6WCVw53VeTTcaSxWTYKx1uN98e2Nj906VRxXjevPTgRunkKOK9J41lAFdZNd1YkyvHEsZk2CQdbjeDH+p723RpFHGHQg9Xu6aaZ4bo25qDP8js5ibpztq8Z0xxTIIL0+F2MuSCgG3TtVHDjoOfBjDhip4Zomdnfn1cE1jzJNGCn4wrj7yDav8m7mWDOzsgXRsVrFXxtNrfFT0zRL/OedzYJvAW6d6aPHxseeTdNR1uN7ca2Ng689O1UcDpd+xxsY1a0TND9GlsH7dfbfV0d02eOsZE0h6TDrebtwxs7NR0aRRQ9+P2q/0oHR8Tb8Oxfdz+F2vUPEn0yzFGkrZLOtxuBj/Z9xHp0ph4N7+ix5U2BjXPDNGjHR82zgG8Tbq9NrcZZyZhG6bD7WTR4EcBFv9LhfF7++DnAJRQ9MwQvXn+f413AmueJNpiy/GmknTSgnS6nWw4uLNnp2tjss0/bGF/62ws3pqOkMm20vljnsDbpTtssvqYU0l6VDrcbpYNbOyg2n+pMG5POLXHZTYeNc8M0ZM19xr79Yd3SPfY5LhxxxK0YjrcbgY/Be856dKYaMvGd5SnN8elQ2SCvfMPYx/AoieJ3jT2YHJOSIfbza8GNvbHdGlMsCO+2OMaG5uaZ4bow/zD1hj/AK6X7rJN5ZOq16f47SuvGNjYc9OlMbkeeHF/K2x8ip4Zogcn9vJD7pqf766/QR/ZZGxT8zOTf1h18JdEtZ/yzhgdeUGPK2yMPpcOkgk1s08/1yvcKd1ok0f3kk3G+9LhdvP2gY3tmy6NSfW75/W2vMbrz+kkmUxnrtfTBNY88/yNntJJeHI63G7uN7Cxp6RLYzLd/H8W97i+xqrmmSHGbP7aY71L5l9sXPMk0Sd7iieh+J7woYGNPT1dGhPpgV/ocXWNWc0zQ4zXVf1dg1b0OSCf6C2g/r0zHW43XxrY2Hnp0phAn1+3v6U1dkXPDDFOeyzt8baku6W7bbLD1HxEd11rbJFOt5vTBnZ2Rro0Js+yfXtcW2O3XTpOJs5Fr+1zAjdJt9vkd31G1LPiv5M9dGBj56dLY+L89tM9rqwevDsdKBPmiLf0++Zz03TDTQ7vNaN+vSMdbjeD/9a6PF0aE2aL7Us/KHU57pSOlIkys2PPH0BtNpNuucnl/abUq2+mw+3mVQMbe2G6NCbLo3ftcVn1o+aZIcbkne/qewDvmW65zcV959Sj4ndHrjuwsd+lS2OSHLju9P0QpuiZIcbiyBVX6X0C75Vuusm5vefUn4XHptPtZs+BnR2RLo3JsWDHn/W3pnrznnSsTIyZE7YKTOC90203OSeQVF++ng63m/n7DWrsh+nSmBwrv63PNdWbmmeGGIPVt4tM4H3TfTd5fySrftwlHW43pw9s7OXp0pgU507hp+1/9b10skyGQy8Y+2PPl2urdONt9o6E1Y+N0uF2s8nAxm6ULo3JsP5hJ/W4nnpV88wQI7bHYRuHBnDrdOtNZjYLxdWHO6fT7eYzAxt7Zbo0JsLBL+1xNfWr6JkhRmrmvQ+OTeAD0s03OTOW1/itsmo63W4GHihc7ch0aUyA3TNfLfbj0+l0yVs5OeEPTHffZJdgYuN2x3S4Hf1wUGNnpysj79lHTemX539T88wQI3T6UdEJfFC6/yaPiGY2Xuumw+1mrYEb9u/TpZH2/L227HMp9e+cdMJknXtB/yfP/9UX0gG06etR8Qk/SofbzZ2ntTG6Wv+wn/S4jiKels6YpOffbZvwAD40HUGTRX09Kz7honS63ewzsLFL0qWRtMVGz+pxFWX8RzpkgnY+7KD0AK6wfTqEJndIxzZGq+2cTrebhwxqrPqP/ehi/o6v6HMVhXw1HTMxqx52cnr8/mKldAxNfpGObYzOTofb0XsGNfbWdGXELFj2uj7XUMzSdNCErLlP4prX61i8QzqIJu9I5zZGV6TD7WjgBd03S1dGyMzBN+lzBQX9IB01EWt9YyL+O19hha+lk2izZzq3MfpGOtxuBj8157h0aUQseO8felw+WQemwyZg57Un5L/zFVZ4ZDqLJscuTOc2RsWvU3vBwMaKPxSWJguWnd3j4gkremaILs5aOgnfnf/drdJpNNk9HdsYLf5yOt1uXj2osTXWTJdG77bY8aZ9Lp60j6Xzpm+H3i11aftyPTqdR5M3p2Mbo1ekw+3o94Ma+1y6Mvq21o+e1+fSyfu3dOL068wVBz4rOqLoEak3pHMbo+qPGB3486fbpiujXw9aOvD3kdPqZenM6dMlW0/aNcZvTEfSZpq/lat5McD/N3/g1Z63S5dGnx6/YvrOrP4VPTNEi/nf2zw9b9f12HQqTXbOPDm+H8X/yH/4wMauSpdGf2751Ul779KHomeGmLuj1849IHWI3dK5NHllOrZxen463W7eO6ivdeanS6Mnay57X58rZnLcOJ08/fjWBeukZ235dk8n02TgD6mnwIPT4Xb0pEGNrZeujH6csXTfPhfMJCl+hQSzsuDgvdODNsjCPdLhNPliOrcxenE63I62HtTYI9KV0Yfj192gz+UyWT6VTp+xu/QzF6fHbLA90+m0+UI6tzE6PB1uRwO/WbpTujLG7str79rnWpk0q908/QIwXgtWOmqi/169RzqgJkekYxunP6XT7Wbngb+F2ildGmN2/AXT/FDjWSh6ZohZOvewSX8ruU86oiY/SMc2TsUvg155UF8HLUiXxjgduc8N5fkrg62bfhEYn2OXbT3Rb87/6j7plJp8JB3bGJ2fDrejWwxq7NvpyhifBSutO6G/+u3Vm9OvA+Ny/AU/SU/XLOy3RTqnJp9N5zZGW6fD7eiXgxr7Y7oyxuX0pRN5JLd/K6dfCcbitw94RXq0ZueJ6aTafDed2xgtTYfb0aMGNbZJujLG4vm73abP9THJNqh5Zoihzl371DJ3JD05HVaTS9OxjdNL0ul2tNmgxn6brozRO3LHraf5QcZz9PX0y8Go7bBjgS/O/+mp6byaPDcd2zidm063m6cN6muzmXRpjNixB697A/9V+7XcLP2KMFJH3O8plf43/4sD0pE1+WM6tjH6bjrcjh44qLF7pitjpFZddmP/m1/LN9MvCqPztH3qffhU9Hbtu6ZzG6ND0uF2dNigxj6TrozR+fKOR53U56ooYvX068KInPj9z5X53vxfPCqdW5OZg9K5jdG90ul2dOtBjf1nujJG5L4bPafYB5E9WWPN9EvDCBy70l5Vn879jHR2TU5PxzZOH0yn29EfBjV2aLoyRmDR8Us3r/jWpRe3Sb86dPb5HY/aOD1H7XZJx9fkhHRs43RpOt1ulqwxoK+t0pXR2Q7LLtiq18VQzG3TLxCd7Hzeh96YnqFunp2OsMlD0rGNUfXfgh8wqLHq9+Xc0K35yifdf5U+V0JB26ZfJJotOv6wvQe9GSmj6O3aT0znNkanpMPtaJdBjf1fujLabbrPURXuvUy7Q/p1osmxF73wKYU/Z/+n56STbLJkm3RuY7RXOt2OLhvUWPFnyN1gLVr99R87rc8VUFfRM0M3bDd/wb0etV96ckal5v8e90nHNk7V70d95qDGjkhXxpwd++jD7zkV71z6sV769WJOFp2444qbr5aemlF6bjrSJt9MxzZOj0+n29GgxwW/NF0Yc3PGshVPnZp3Lv34UPo1Y7ZmNt3//Xedvr9Vn5DOtcnN0rGN0UHFfxN35KAjTQ9NV8as3ffgpYf8rNexnw7/m37hmIX5J+6419b7pmdlLPZNZ9vmrencxuiu6XA7uv2gxl6drozZOOPgpVs7mdZow/Srx1BLTt///z751vI/ZR+s5i2j60/zLVWPSafb0XGDGvtKujKGWnDhS7Z/w+br9Dnr0+YnNc8M3QDM3PdTv3j/UXec4v/K/+ZF6aCbDHwTOA1q3vTzT7cd0Nfio9OVMcCBl3zgRY/cc5pPjvTkS+lXkmtZcOidl91qxct3vaH8FqTmk7d/mo5tnKp/arfegL5ely6Mazvw7uf86KMvvolnrIzKlelXlL9a/wm7v+R+h7/7k496abmHpXWz+AfHV/TVdG5jdFLxT+1mHjegsSvSlfFXxz7tmIO3/f6KV7znFVv2Otg3BCVPnB62VyXbf2OfOy37+Eq7X/3/wE6bbrrpr6/+x8or/WDZU/e50b/t9csrDnnX2VsZbCbGwk/U9sNBjf00vXG1+EZ6/5qTv2x2Oy773d82uw3/stkdcPU/7rzSn5Z9YJ9Xbb/XQ279zO3e+CwfrI/Rb9Pz2mB9t/kCc3VJeudqsIW/9Zm9kk9hWDmdGlDOKqumd64GU30jIaN2z/S8tnhzOjWgnD+kN64W90unRiWfSc9ri8emUwPKuUt642ox6AgeLMe90/Pa4o7p1IByjktvXC3un06NSs5Nz2uDPab5ki5gPO6e3rkazPeTcGZvq/S8ttg9nRpQzhprpneuBndIp0YlW6fntcVG6dSAcjZPb1wtnppOjUoekJ7XFm9KpwaU8+f0xtXi3enUqOSB6XltMc0PrgTG4xfpjavFdunUqORB6XltcOwN7LJzYASuSu9cDRZ4agmz9+D0vLY4Jp0aUM42S9I7V4MT06lRyUPT89riuHRqQDnbpTeuFjumU6OS7dPz2uJm6dSAcj6U3rhaPCOdGpWslJ7XFl9PpwaUs2N642rx43RqFLJ4h/S8NthijXRsQDkbpneuBjMHpVOjkJum57XF6unUgHI2XpDeuRo8O50alTwyPa8tvplODSjnS+mNq8Vv0qlRya3S89riHunUgHLult64WlyZTo1KHp2e1xZvS6cGlLNJeuNq8e10ahSy2s7peW2wxZbp2IByNk3vXA1mNkunRiG7pue1xX3SqQHlbDaT3rkabJpOjUoem57XFj9PpwaUc8/0xtViWTo1KtktPa8t3pFODSjnXumNq8Vl6dSoZPf0vLb4XDo1oJx7pzeuFp9Op0YhC/dIz2uDJfulYwPKOTe9c7U4LZ0aheyZHtcW70ynBpSzVXrjanFpOjUquUd6Xlv8Ip0aUM7W6Y2rxTnp1Khkn/S8trhtOjWgnAekN64Wn0mnRiX3Sc9ri/unUwPK+VN642rx2XRqFLLlFul5bTB/m3RsQDkPSu9cLbZKp0Yh90+Pa4s7pFMDynlweuNqcW46NSp5cnpeW2ybTg0o54vpjavFeenUqOSp6Xlt8eR0akA526c3rhZL06lRyQHpeW3xvnRqQDlfSW9cLS5Pp0Yh68xPz2uDReukYwOqWXx0eudqcX46Ngo5NT2uLQ5IpwaUc9P0xtXiQenUqOQZ6Xlt8YF0akA5V6Q3rhZ/SqdGJbuk57XFu9OpAeX8NL1xtTg8nRqVPDs9ry22S6cGlHNReuNq8bF0ahRy0IL0vDZYcFI6NqCa1XZO71wtHpyOjUK+nR7XFiemUwPKuWN642pxVjo1KtkrPa8tdkynBpTzlvTG1eJl6dSoZFl6XlusmE4NKGej9MbVYvt0alTyhPS8tjg1nRpQzjHpjavFUenUKGTf9Li2WLBxOjagmoXHpneuFq9Ix0YhT0mPa4sN06kB5bwtvXG1OHJxOjYKeVF6Xlv8bzo1oJx3pDeuFq9Jp0Yl/5me1xbPSKcGlHO/9MbV4lXp1Kjk0PS8tvhxOjWgnHemN64Wj0ynRiFbpce1xcxB6diAavZbkt65Wrw2HRuFXJ4e1xbPTqcGlPOu9MbVYq3V0rFRyP+l57XFb9KpAeW8O71xtXh0OjUq+VN6Xls8Jp0aUM4J6Y2rxevTqVHJg9Lz2uJL6dSAck5Pb1wt3pBOjUJemh7XFjOPS8cGVHNSxQdFz9s1HRuFfDE9ri0en04NKOc96Y2rxfobpGOjkMPS89rie+nUgHKuTG9cLVZOp0YlX0nPa4u7pVMDyvleeuNqsVs6NQpZfHR6Xlt8Ox0bUM6F6Y2rxZvSqVHI69Lj2mJms3RsQDUnz6R3rhZvTcdGIVekx7XFpunUgHJOSW9cLY5dmI6NQn6antcWy9KpAeU8Kb1xtTgmnRqVXJSe1xZ7pVMDyjknvXG1uEU6NQpZbef0vLbYOx0bUM7T0htXi3ukU6OQO6bHtcnP0rEB1fxHet9q8rZ0bBTylvS4tnhCOjWgnK+mN64WW2yZjo1CNkrPa4v906kB5SxNb1wt7pNOjUrenp7XFu9PpwaU84P0xtXi5+nUKGThHul5bfHpdGxAOQemN64Wt02nRiFvS49rk9PSsQHVfCG9bzW5fzo2CrkgPa4tPpxODSjnxemNq8X8bdKxUcjP0/Pa4px0akA5/5beuFrcIZ0alXwrPa8t7pVODShnpfTG1WLbdGoUst+S9Ly2eEo6NqCaxTukN64WD0nHRiFPTI9rk/9IxwZU87X0vtVku3RsFPKQ9Li2uG86NaCcR6Y3rhaLHpaOjUI+kJ7XFv+ZTg0o51bpjavFienUqOTh6Xlt8aJ0akA5j05vXC12TKdGIessSs9ri8+mYwOqqfmg6EekY6OQR6XHtclW6diAanZN71tNfpyOjUI+mh7XFoemUwPKeWx642oxc1A6Ngr5TXpeW5yXTg0oZ7f0xtVip3RqVHJmel5bfCSdGlBOyQdF/yadGoUcNJOe1xZfTccGVFPzQdFXpmOjkOekx7XJxenYgGr2TO9bTb6djo1CLkuPa4vPp1MDyin5oOiZzdKxUchz0/Pa4gfp1IBy9klvXC0uTKdGJZem57XFA9KpAeWUfFD0snRqFLJvelybXJ6ODaim5oOiL0vHRiGHpMe1yfPSsQHV1HxQ9Cnp2Cjk6elxbfGgdGpAOSUfFD1v33RsFPKS9Li2+FM6NaCckg+KvjSdGpUcmp7XFoenUwPKKfmg6HPSqVHI+elxbfKrdGxANSeVfFD0Z9KxUch/pce1yRfSsQHV/Di9bzU5JB0bhRyeHtcWz0+nBpRT8kHR87ZKx0YhL0iPa4vfpVMDyin5oOhz06lRyRHpeW3x/XRqQDmPT29cLV6STo1Cfpge1yYvTscGVFPzQdFL07FRyFHpcW3y0nRsQDV7p/etJlunY6OQV6fHtcUOi9OxAdW8P71xNTk/HRuFvCY9ri1elk4NKOeD6Y2rxefTqVHI4qPT89pi+3RsQDkfTm9cLR6YTo1CXpse1yZfTMcGVHNaet9q4pZrZu/W6XFt8ol0bEA1z0zvW00+lo6NQl6fHtcWX/abOGCOPpLeuJo8OB0bhdw+Pa4tvpJODSjn4PTG1eKsdGoUssqq6Xlt8ep0bEA5Z6Q3rhYfT6dGIX9Ij2uTl6djA6r5TnrfauJED7P3pvS4NvlaOjagmo+l960mR6Vjo5D/To9riyP9Jg6Yo++nN64mTvQwe8ekx7XFK9OpAeV8PL1xtTjauxdmbeGx6Xlt8ap0bEA1i89Kb1wtXpOOjUI2T49rkxunYwOqeUV632ri3Quz9470uDZ5XTo2oJpPpvetJo9Mx0Yh90uPa4ubr5aODajmVemNq4l3L8zeO9Pj2uKW6dSAcm6Z3rharOXdC7O235L0vLa4VTo2oJrVbp7euFo8Oh0bhbwvPa5NrkjHBlTz7+l9q8lP07FRyLvT49rk7HRsQDXrpvetJm9Ix0YhJ6THtYVvlYC5enN642ryxnRsFHJielxbXJRODSjnzumNq8X6q6Rjo46TFqXntcXr07EB1WywR3rjarFyOjYK+XF6XJv8Ph0bUM3X0/tWkzenY6OQx6THtYlvlYA5+p/0vtXkLenYKOS96XFt4VslYK6+md64mrw1HRuFPD49ri0uSacGlHOf9MbV4tiF6dio46CZ9Ly2WDsdG1DNllukN64Wx6Rjo5C90+PaZN10bEA190/vW02OS8dGIe9Pj2uTO6ZjA6p5cnrfavI/6dgo5IPpcW2x/gbp2IBqnpreuJq8LR0bhXw4Pa4t7pxODSjngPTG1WKLLdOxUcdp6XFtsls6NqCadeanN64Wx6djo5DPpse1iZsWgDl6VHrfavLzdGwU8pH0uDZx0wIwR89I71tN/pyOjULOS49rCzctAHO1S3rjanL/dGwUckZ6XFu8PZ0aUM6Z6Y2rxfxt0rFRx/PS49rkv9OxAdXUvBTzqnRsFPKr9Lg2uUs6NqCa56T3rSbbpmOjkBemx7XJ19OxAdXsld63mjwkHRuF/C49ri3W9Js4YI6em964mmyXjo06Fp+VHtcWd0/HBpRzaXrjarHoYenYqOMT6XFtcot0bEA1+6b3rSYPT8dGIS9Pj2sTTx8C5uiQ9L7VZMd0bBRyo/S4NvH0IWCOnp7et5o8Ih0bhbwyPa4tPH0ImKuSl2LOe1Q6NupYfHR6XFt4+hAwVyUvxVywcTo26jg7Pa5N9knHBlRzfnrfarJTOjYK+X16XJtckI4NqKbmpZi/ScdGIT9Kj2uTz6VjA6qpeSnmlenYKOSS9Li2WLJfOjagmpKXYs67azo26lhl1fS4tvhWOjagmpqXYs6cnM6NOt6aHtcm90vHBlRT81LMC9OxUchd0uPa5M/p2IBqal6KuUk6Ngo5Lj2uTe6fjg2opualmJelY6OQu6fHtcX8bdKxAdV8Kr1xNTklHRt1rLFmelxbXJWODahm8ZHpjavJvuncqONz6Wltcrt0bEA1Z6f3rSaXpmOjkD+nx7XJL9OxAdW8Ib1vNflgOjYK+UV6XJu8Lx0bUM3a6X2ryb3SsVHIVelxbbFonXRsQDUrpzeuJoekY6OO/Zakx7XFr9OxAdXUvBRz3lbp3KjjXelpbfLUdGxANTdJ71tNzk3HRiEfSo9rk4ekYwOquVl632ryknRsFLJjelybbJeODajmFul9q8lH0rFRyOnpcW2x6GHp2IBqVk9vXE22TsdGHSctSI9ri4enYwOqqXkp5ryL07lRx3vS09rkhHRsQDW3Se9bTT6fjo1CrkyPa5MPpWMDqrltet9q8sB0bBTyvfS4Njk1HRtQze3S+1aTw9OxUciF6XFtsWDjdGxANb9Ob1xNPpaOjTpOnkmPa4vT07EB1awzP71xNflCOjfqOCU9rU3ulI4NqGa99L7V5Kx0bBTypPS4NnlEOjagmkek960mH0/HRiHnpMe1yY/TsQHV/G9632ryb+nYKORp6XFtseAn6diAanZKb1xNjkrHRh2npae1yU7p2IBqDip5Kea8T6Rzo45npqe1yS7p2IBqvp3et5ocvTidG3UsTY9rk4+mYwOq+WN632rymnRsFHJwelybfCkdG1DNsvS+1eRG6dgo5Iz0uLaYeVw6NqCaJ6Q3riY3TsdGHd9JT2uTM9OxAdXsm9632rwunRt1fCw9rU3em44NqOYp6X2ryc1XS+dGHd9Pj2uTK9OxAdW8KL1vNbllOjYK+Xh6XJt8Ox0bUM1L0vtWk5+mY6OOxWelx7XFzGbp3IBqDk1vXE1+n46NOl6RntYmF6ZjA6p5VnrfavPGdG7U8cn0tDbZJB0bUM1/pfetJuuvks6NOl6VHtcmf0zHBlRzeHrfanJJOjYK+VR6XJvsnY4NqOYF6X2ryZvTsVHHajdPj2uLmZ+lcwOqOSK9cTV5Szo26vj39LQ2+W06NqCaH6b3rTZvTedGHeump7XJ/unYgGq2/vI4bDHmze7YhencAAAAAAAAAAAAAAAAAAAAAAAAAAAAAAAAAAAAAAAAAAAAAAAAAAAAAAAAAAAAAAAAAAAAAAAAAAAAAAAAAAAAAAAAAAAAAAAAAAAAAAAAAAAAAAAAAAAAAAAAAAAAAAAAAAAAAAAAAAAAAAAAAAAAAAAAAAAAAAAAAAAAAAAAAAAAAAAAAAAAAAAAAAAAAAAAAAAAAAAAAAAAAAAAAAAAAAAAAAAAAAAAAAAAAAAAAAAAAAAAAAAAAAAAAAAAAAAAAAAAAAAAAAAAAAAAAAAAAAAAAAAAAAAAAAAAAAAAAAAAAAAAAAAAAAAAAAAAAAAAAAAAAAAAAAAAAAAAAAAAAAAAAAAAAAAAAAAAAAAAAAAAAAAAAAAAAAAAAAAAAAAAAAAAAAAAAAAAAAAAAAAAAAAAAAAAAAAAAAAAAAAAAAAAAAAAAAAAAAAAAAAAAAAAAAAAAAAAAAAAAAAAAAAAAAAAAAAAAAAAAAAAAAAAAAAAAAAAAAAAAAAAAAAAAAAAAAAAAAAAAAAAAAAAAAAAAAAAAAAAAAAAAAAAAAAAAAAAAAAAAAAAAAAAAAAAAAAAAAAAAAAAAAAAAAAAAAAAAAAAAAAAAAAAAAAAAAAAAAAAAAAAAAAAAAAAAAAAAAAAAAAAAAAAAAAAAAAAAAAAAAAAAAAAAAAAAAAAAAAAAAAAAAAAAAAAAAAAAAAAAAAAAAAAAAAAAAAAAAAAAAAAAAAAAAAAAAAAAAAAAAAAAAAAAAAAAAAAAAAAAAAAAAAAAAAAAAAAAAAAAAAAAAAAAAAAAAAAAAAAAAAAAAAAAAAAAAAAAAAAAAAAAAAAAAAAAAAAAAAAAAAAAAAAAAAAAAAAAAAAAAAAAAAAAAAAAAAAAAAAAAAAAAAAAAAAAAAAAAAAAAAAAAAAAAAAAAAAAAAAAAAAAAAAAAAAAAAAAAAAAAAAAAAAAAAAAAAAAAAAAAAAAAAAAAAAAAAAAAAAAAAAAAAAAAAAAAAAAAAAAAAAAAAAAAAAAAAAAAAAAAAAAAAAAAAAAAAAAAAAAAAAAAAAAAAAAAAAAAAAAAAAAAAAAAAAAAAAAAAAAAAAAAAAAAAAAAAAAAAAAAAAAAAAAAAAAAAAAAAAAAAAAAAAAAAAAAAAAAAAAAAAAAAAAAAAAAAAAAAAAAAAAAAAAAAAAAAAAAAAAAAAAAAAAAAAAAAAAAAAAAAAAAAAAAAAAAAAAAAAAAAAAAAAAAAAAAAAAAAAAAAAAAAAAAAAAAAAAAAAAAAAAAAAAAAAAAAAAAAAAAAAAAAAAAAAAAAAAAAAAAAAAAAAAAAAAAAAAAAAAAAAAAAAAAAAAAAAAAAAAAAAAAAAAAAAAAAAAAAAaPT/APeTwqeSd0niAAAAAElFTkSuQmCC;" parent="KgL-a-wTYIPYhR0-KAlW-69" vertex="1">
          <mxGeometry x="80" y="80" width="40" height="40" as="geometry" />
        </mxCell>
        <mxCell id="KgL-a-wTYIPYhR0-KAlW-75" style="edgeStyle=orthogonalEdgeStyle;rounded=0;orthogonalLoop=1;jettySize=auto;html=1;entryX=0.5;entryY=0;entryDx=0;entryDy=0;dashed=1;labelBackgroundColor=none;fontFamily=Fira Sans;fontSource=https%3A%2F%2Ffonts.googleapis.com%2Fcss%3Ffamily%3DFira%2BSans;fontSize=11;fontColor=default;endArrow=openThin;endFill=0;strokeColor=#808080;exitX=0.5;exitY=1;exitDx=0;exitDy=0;" parent="KgL-a-wTYIPYhR0-KAlW-69" source="KgL-a-wTYIPYhR0-KAlW-73" target="KgL-a-wTYIPYhR0-KAlW-72" edge="1">
          <mxGeometry relative="1" as="geometry">
            <Array as="points">
              <mxPoint x="100" y="80" />
            </Array>
          </mxGeometry>
        </mxCell>
        <mxCell id="KgL-a-wTYIPYhR0-KAlW-73" value="" style="shape=image;imageAspect=0;verticalLabelPosition=bottom;verticalAlign=top;rounded=1;shadow=0;glass=0;labelBackgroundColor=none;sketch=0;fillStyle=solid;fontFamily=Fira Sans;fontSource=https%3A%2F%2Ffonts.googleapis.com%2Fcss%3Ffamily%3DFira%2BSans;fontSize=11;fontColor=default;strokeColor=default;strokeWidth=6;fillColor=#CC6600;gradientColor=#FF9933;html=0;image=https://logos-download.com/wp-content/uploads/2016/09/Nginx_logo.png;aspect=fixed;imageBorder=none;perimeterSpacing=0;container=0;" parent="KgL-a-wTYIPYhR0-KAlW-69" vertex="1">
          <mxGeometry x="70" y="43.7" width="60" height="12.6" as="geometry" />
        </mxCell>
        <mxCell id="KgL-a-wTYIPYhR0-KAlW-74" style="edgeStyle=orthogonalEdgeStyle;rounded=0;orthogonalLoop=1;jettySize=auto;html=1;exitX=0;exitY=0.5;exitDx=0;exitDy=0;entryX=0;entryY=0.5;entryDx=0;entryDy=0;labelBackgroundColor=none;fontFamily=Fira Sans;fontSource=https%3A%2F%2Ffonts.googleapis.com%2Fcss%3Ffamily%3DFira%2BSans;fontSize=11;fontColor=default;endArrow=openThin;endFill=0;strokeColor=#808080;dashed=1;" parent="KgL-a-wTYIPYhR0-KAlW-34" source="KgL-a-wTYIPYhR0-KAlW-34" target="KgL-a-wTYIPYhR0-KAlW-73" edge="1">
          <mxGeometry relative="1" as="geometry">
            <Array as="points">
              <mxPoint x="60" y="110" />
              <mxPoint x="60" y="110" />
            </Array>
          </mxGeometry>
        </mxCell>
        <mxCell id="KgL-a-wTYIPYhR0-KAlW-62" value="Resolve para" style="edgeStyle=orthogonalEdgeStyle;rounded=0;orthogonalLoop=1;jettySize=auto;html=1;labelBackgroundColor=none;fontFamily=Fira Sans;fontSource=https%3A%2F%2Ffonts.googleapis.com%2Fcss%3Ffamily%3DFira%2BSans;fontSize=10;fontColor=#808080;endArrow=classic;endFill=1;strokeColor=#808080;labelPosition=center;verticalLabelPosition=top;align=center;verticalAlign=bottom;" parent="1" source="KgL-a-wTYIPYhR0-KAlW-61" target="KgL-a-wTYIPYhR0-KAlW-65" edge="1">
          <mxGeometry relative="1" as="geometry">
            <mxPoint x="280" y="300" as="targetPoint" />
          </mxGeometry>
        </mxCell>
        <mxCell id="KgL-a-wTYIPYhR0-KAlW-61" value="Route 53" style="sketch=0;points=[[0,0,0],[0.25,0,0],[0.5,0,0],[0.75,0,0],[1,0,0],[0,1,0],[0.25,1,0],[0.5,1,0],[0.75,1,0],[1,1,0],[0,0.25,0],[0,0.5,0],[0,0.75,0],[1,0.25,0],[1,0.5,0],[1,0.75,0]];outlineConnect=0;fontColor=#232F3E;gradientColor=#945DF2;gradientDirection=north;fillColor=#5A30B5;strokeColor=#ffffff;dashed=0;verticalLabelPosition=bottom;verticalAlign=top;align=center;html=1;fontSize=12;fontStyle=0;aspect=fixed;shape=mxgraph.aws4.resourceIcon;resIcon=mxgraph.aws4.route_53;rounded=1;shadow=0;glass=0;labelBackgroundColor=none;fillStyle=solid;fontFamily=Fira Sans;fontSource=https%3A%2F%2Ffonts.googleapis.com%2Fcss%3Ffamily%3DFira%2BSans;" parent="1" vertex="1">
          <mxGeometry x="160" y="280" width="40" height="40" as="geometry" />
        </mxCell>
        <mxCell id="KgL-a-wTYIPYhR0-KAlW-68" value="Direciona" style="edgeStyle=orthogonalEdgeStyle;rounded=0;orthogonalLoop=1;jettySize=auto;html=1;entryX=0;entryY=0.5;entryDx=0;entryDy=0;labelBackgroundColor=none;fontFamily=Fira Sans;fontSource=https%3A%2F%2Ffonts.googleapis.com%2Fcss%3Ffamily%3DFira%2BSans;fontSize=10;fontColor=#808080;endArrow=classic;endFill=1;strokeColor=#808080;labelPosition=center;verticalLabelPosition=top;align=center;verticalAlign=bottom;" parent="1" source="KgL-a-wTYIPYhR0-KAlW-65" target="KgL-a-wTYIPYhR0-KAlW-34" edge="1">
          <mxGeometry relative="1" as="geometry">
            <mxPoint as="offset" />
          </mxGeometry>
        </mxCell>
        <mxCell id="KgL-a-wTYIPYhR0-KAlW-65" value="Load Balancer" style="sketch=0;outlineConnect=0;fontColor=#232F3E;gradientColor=#FF9933;fillColor=#CC6600;strokeColor=#ffffff;dashed=0;verticalLabelPosition=bottom;verticalAlign=top;align=center;html=1;fontSize=12;fontStyle=0;aspect=fixed;pointerEvents=1;shape=mxgraph.aws4.application_load_balancer;rounded=1;shadow=0;glass=0;labelBackgroundColor=none;fillStyle=solid;fontFamily=Fira Sans;fontSource=https%3A%2F%2Ffonts.googleapis.com%2Fcss%3Ffamily%3DFira%2BSans;gradientDirection=north;" parent="1" vertex="1">
          <mxGeometry x="280" y="280" width="40" height="40" as="geometry" />
        </mxCell>
        <mxCell id="jnDMHYy24ZUO7HtZ8cWZ-1" value="CDN" style="text;html=1;align=center;verticalAlign=middle;whiteSpace=wrap;rounded=0;fontFamily=Fira Sans;fontSource=https%3A%2F%2Ffonts.googleapis.com%2Fcss%3Ffamily%3DFira%2BSans;" vertex="1" parent="1">
          <mxGeometry x="150" y="250" width="60" height="30" as="geometry" />
        </mxCell>
        <mxCell id="jnDMHYy24ZUO7HtZ8cWZ-2" value="Balanceador" style="text;html=1;align=center;verticalAlign=middle;whiteSpace=wrap;rounded=0;fontFamily=Fira Sans;fontSource=https%3A%2F%2Ffonts.googleapis.com%2Fcss%3Ffamily%3DFira%2BSans;" vertex="1" parent="1">
          <mxGeometry x="270" y="250" width="60" height="30" as="geometry" />
        </mxCell>
      </root>
    </mxGraphModel>
  </diagram>
</mxfile>
